<?xml version="1.0" standalone="no"?>
<!DOCTYPE svg PUBLIC "-//W3C//DTD SVG 1.1//EN" "http://www.w3.org/Graphics/SVG/1.1/DTD/svg11.dtd" >
<svg xmlns="http://www.w3.org/2000/svg">
<metadata>Generated by IcoMoon</metadata>
<defs>
<font id="icomoon" horiz-adv-x="1024">
<font-face units-per-em="1024" ascent="960" descent="-64" />
<missing-glyph horiz-adv-x="1024" />
<glyph unicode="&#x20;" horiz-adv-x="512" d="" />
<glyph unicode="&#xe900;" glyph-name="ai" d="M120.747 26.453c14.080-13.653 46.080-32.853 107.947-6.827l125.867 33.28s3.413 1.28 5.12 1.707c12.8 5.547 25.6 14.507 36.693 25.6l517.547 517.547c5.12 5.12 8.533 11.52 9.813 18.347 11.52 58.027-5.973 118.187-46.933 160.853-34.56 35.84-81.92 55.467-130.56 55.467-9.387 0-18.773-0.853-28.16-2.133l-5.973-0.853c-7.68-1.28-14.507-4.693-20.053-10.24l-517.12-517.12c-11.52-11.52-20.48-24.32-26.027-37.12-0.853-1.707-1.28-3.413-1.707-5.12l-33.28-125.867c-26.027-61.44-6.827-93.867 6.827-107.52zM734.72 759.467c33.707 3.413 65.707-8.107 89.6-32.853 22.613-23.467 33.28-54.613 29.867-86.187l-84.053-84.053-119.040 119.040 84.053 84.053zM181.76 107.947s1.28 3.413 1.707 5.12l33.28 125.013c2.133 3.84 5.547 8.533 9.387 12.373l373.333 373.76 119.040-119.040-373.76-373.76c-3.84-3.84-8.533-7.253-12.8-9.387l-125.013-32.853s-3.413-1.28-5.12-1.707c-14.933-6.4-23.893-7.68-28.587-8.107 0 4.693 1.28 13.653 8.107 28.587zM212.48 742.827s44.8 5.547 72.107 32.853c14.507 14.507 23.467 34.56 28.16 54.613 1.28 5.547 1.28 11.093 2.987 16.64 0.853 3.413 3.413 5.973 7.253 5.973 5.12 0 6.827-7.68 7.68-12.373s10.667-53.76 33.28-69.12 30.293-18.773 61.44-26.453c3.413-0.853 6.827-2.133 9.387-2.987 3.413-0.853 5.547-6.4 2.133-9.387-0.853-0.853-2.133-0.853-2.987-1.28-17.493-2.987-34.987-8.96-50.773-17.067-8.107-4.267-15.787-9.387-21.333-16.64-19.2-23.893-23.467-39.68-31.573-67.84-2.987-10.667-5.973-10.667-8.107-10.667-1.707 0-4.267 0.427-9.813 19.2s-12.373 47.787-27.307 59.307-24.747 20.907-69.973 32c-9.813 2.133-11.947 11.52-2.133 13.227zM765.44 339.627s33.707 4.267 54.613 24.747c11.093 11.093 17.92 26.027 21.333 41.387 0.853 4.267 0.853 8.533 2.133 12.373 0.853 2.56 2.56 4.693 5.547 4.693 3.84 0 5.12-5.973 5.973-9.387s8.107-40.533 25.173-52.053 23.040-14.080 46.507-20.053c2.56-0.427 5.12-1.707 6.827-2.56 2.56-0.853 4.267-5.12 1.707-6.827-0.853-0.427-1.707-0.853-2.56-0.853-13.227-2.133-26.453-6.827-38.4-13.227-5.973-2.987-11.947-7.253-16.213-12.373-14.507-17.92-17.92-29.867-23.893-51.2-2.133-8.107-4.267-8.107-6.4-8.107-1.28 0-2.987 0-7.253 14.507s-9.387 36.267-20.48 44.8-18.773 15.787-52.907 24.32c-7.253 1.707-8.96 8.533-1.707 10.24zM91.307 529.92s24.747 2.987 39.68 17.92c8.107 8.107 12.8 18.773 15.36 29.867 0.853 2.987 0.853 6.4 1.707 8.96 0.427 1.707 2.133 3.413 3.84 3.413 2.987 0 3.84-4.267 4.267-6.827s5.973-29.44 18.347-37.973 16.64-10.24 33.707-14.507c1.707-0.427 3.84-1.28 5.12-1.707 1.707-0.427 2.987-3.84 1.28-5.12-0.427 0-1.28-0.427-1.707-0.853-9.813-1.707-19.2-4.693-27.733-9.387-4.267-2.133-8.533-5.12-11.947-8.96-10.667-12.8-12.8-21.76-17.067-37.12-1.707-5.973-3.413-5.973-4.693-5.973-0.853 0-2.133 0-5.547 10.667s-6.827 26.453-14.933 32.427-13.653 11.52-38.4 17.493c-5.547 1.28-6.4 6.4-1.28 7.253z" />
<glyph unicode="&#xe901;" glyph-name="alerta_round" d="M512 347.307c-20.053 0-36.267 16.213-36.267 36.267v257.707c0 20.053 16.213 36.267 36.267 36.267s36.267-16.213 36.267-36.267v-257.707c0-20.053-16.213-36.267-36.267-36.267zM554.667 254.72c0-23.564-19.103-42.667-42.667-42.667s-42.667 19.103-42.667 42.667c0 23.564 19.103 42.667 42.667 42.667s42.667-19.103 42.667-42.667zM512 27.733c-231.68 0-420.267 188.587-420.267 420.267s188.587 420.267 420.267 420.267 420.267-188.587 420.267-420.267-188.587-420.267-420.267-420.267zM512 795.733c-191.573 0-347.733-156.16-347.733-347.733s156.16-347.733 347.733-347.733 347.733 156.16 347.733 347.733-156.16 347.733-347.733 347.733z" />
<glyph unicode="&#xe902;" glyph-name="bandejadeentrada" d="M933.12 424.107s0 0 0 0v1.28s-1.707 3.84-2.133 5.973l-98.133 290.56c-20.907 57.173-67.413 94.293-118.187 94.293h-404.907c-50.773 0-97.28-37.12-118.613-95.147l-98.133-289.707s-1.28-3.84-2.133-5.973v-1.28s0 0 0 0c-3.413-9.813-5.547-20.48-5.547-31.573v-214.187c0-54.187 43.947-98.133 98.133-98.133h657.493c54.187 0 98.133 43.947 98.133 98.133v214.187c0 11.093-2.133 21.76-5.547 31.573zM259.84 696.747c8.533 23.040 27.307 46.507 49.92 46.507h404.48c23.040 0 41.387-23.467 49.92-45.653l69.973-207.36h-143.36c-41.387 0-77.653-26.027-90.453-64.853-12.373-37.547-47.36-62.72-87.040-62.72s-74.667 25.173-87.040 63.147c-12.8 38.827-49.493 64.853-90.453 64.853h-145.493l69.973 206.507zM866.56 177.92c0-14.080-11.52-25.6-25.6-25.6h-657.493c-14.080 0-25.6 11.52-25.6 25.6v214.187c0 2.987 0.853 5.547 1.707 8.107 0 0 0 0 0 0.427l0.853 2.133c4.267 8.533 12.8 14.507 23.040 14.507h151.893c9.813 0 18.773-5.973 21.76-15.36 22.187-67.413 84.907-112.64 156.16-112.64s133.547 45.227 156.16 112.64c2.987 8.96 11.52 15.36 21.76 15.36h150.187c10.24 0 18.773-5.973 23.040-14.507l0.853-2.133s0 0 0-0.427c0.853-2.56 1.707-5.12 1.707-8.107v-214.187z" />
<glyph unicode="&#xe903;" glyph-name="cropimage" d="M881.067 213.333s0 0.853 0 1.707v465.92s0 0.853 0 1.707c34.133 16.213 57.6 50.773 57.6 90.88 0 55.893-45.227 101.12-101.12 101.12-40.107 0-74.667-23.467-90.88-57.6-0.427 0-0.853 0-1.707 0h-465.92s-0.853 0-1.707 0c-16.213 34.133-50.773 57.6-90.88 57.6-55.893 0-101.12-45.227-101.12-101.12 0-40.107 23.893-74.667 57.6-90.88 0-0.427 0-0.853 0-1.707v-465.92s0-0.853 0-1.707c-34.133-16.213-57.6-50.773-57.6-90.88 0-55.893 45.227-101.12 101.12-101.12 40.107 0 74.667 23.467 90.88 57.6 0.427 0 0.853 0 1.707 0h465.92s0.853 0 1.707 0c16.213-34.133 50.773-57.6 90.88-57.6 55.893 0 101.12 45.227 101.12 101.12 0 40.107-23.467 74.667-57.6 90.88zM741.12 151.467h-458.24c-9.813 32.427-34.987 57.6-67.413 67.413v458.24c32.427 9.813 57.6 34.987 67.413 67.413h458.24c9.813-32.427 34.987-57.6 67.413-67.413v-458.24c-32.427-9.813-57.6-34.987-67.413-67.413z" />
<glyph unicode="&#xe904;" glyph-name="flechaabajo" d="M883.627 436.907c-14.080 14.080-37.12 14.080-51.2 0l-283.733-285.013v680.107c0 20.053-16.213 36.267-36.267 36.267s-36.267-16.213-36.267-36.267v-680.96l-284.16 282.453c-14.080 14.080-37.12 14.080-51.2 0s-14.080-37.12 0-51.2l346.027-343.893c7.253-7.253 16.213-10.667 25.6-10.667s18.773 3.413 25.6 10.667l346.027 347.307c14.080 14.080 14.080 37.12 0 51.2z" />
<glyph unicode="&#xe905;" glyph-name="flechaarriba" d="M537.6 857.6c-14.080 14.080-37.12 14.080-51.2 0l-346.027-347.307c-14.080-14.080-14.080-37.12 0-51.2 7.253-7.253 16.213-10.667 25.6-10.667s18.773 3.413 25.6 10.667l283.733 285.013v-680.107c0-20.053 16.213-36.267 36.267-36.267s36.267 16.213 36.267 36.267v680.96l284.16-282.453c14.080-14.080 37.12-14.080 51.2 0s14.080 37.12 0 51.2l-345.6 343.893z" />
<glyph unicode="&#xe906;" glyph-name="iratokko" d="M857.6 873.813h-170.667c-20.053 0-36.267-16.213-36.267-36.267s16.213-36.267 36.267-36.267h85.76l-96.853-97.28c-14.080-14.080-14.080-37.12 0-51.2 7.253-7.253 16.213-10.667 25.6-10.667s18.773 3.413 25.6 10.667l94.293 94.293v-80.64c0-20.053 16.213-36.267 36.267-36.267s36.267 16.213 36.267 36.267v171.093c0 20.053-16.213 36.267-36.267 36.267zM827.733 584.107c-20.053 0-36.267-16.213-36.267-36.267v-279.040c0-49.067-40.107-88.747-88.747-88.747h-411.307c-49.067 0-88.747 40.107-88.747 88.747v410.88c0 49.067 40.107 88.747 88.747 88.747h255.147c20.053 0 36.267 16.213 36.267 36.267s-16.213 36.267-36.267 36.267h-255.147c-89.173 0-161.28-72.533-161.28-161.28v-410.88c0-89.173 72.533-161.28 161.28-161.28h410.88c89.173 0 161.28 72.533 161.28 161.28v279.040c0 20.053-16.213 36.267-36.267 36.267zM533.76 677.973c0 9.813-5.973 10.24-17.493 0-8.533-7.253-55.040-46.933-55.040-46.933v-64h-48.64v-52.48h48.64v-108.373c0-78.933 45.227-141.227 90.027-164.267 11.947 9.813 55.040 47.36 55.040 47.36l-19.2 13.227c-32.427 23.040-53.76 61.013-53.76 104.107v108.373h30.72s21.76 29.013 57.173 46.080c3.413 0.853 5.12 6.4-3.84 6.4h-83.627v110.507z" />
<glyph unicode="&#xe907;" glyph-name="pinupsolido" d="M773.12 332.373c-28.587 63.573-81.92 100.267-114.773 118.187l64.853 342.187c3.413 18.773-1.28 37.547-13.653 52.053-12.373 14.933-30.72 23.467-49.92 23.467h-295.253c-19.627 0-37.547-8.533-49.92-23.467-11.947-14.507-17.067-33.707-13.653-52.053l64.853-342.187c-32.853-17.493-86.187-54.187-114.773-118.187-8.533-19.2-6.827-41.387 4.693-59.307 11.947-18.773 32.427-29.867 55.040-29.867h165.12v-179.2c0-20.053 16.213-36.267 36.267-36.267s36.267 16.213 36.267 36.267v179.2h165.547c22.187 0 42.667 11.093 55.040 29.867 11.52 17.92 13.227 40.107 4.693 59.307z" />
<glyph unicode="&#xe908;" glyph-name="premium" d="M679.253 484.267l-145.067 252.587c-9.813 17.067-34.987 17.067-44.8 0l-145.067-252.587c-7.68-13.227-24.32-17.067-37.12-8.533l-187.733 128.853c-19.2 13.227-44.8-4.267-39.68-26.88l92.16-411.307c2.56-11.947 13.227-20.053 25.173-20.053h628.907c11.947 0 22.613 8.533 25.173 20.053l92.16 411.307c5.12 23.040-20.48 40.107-39.68 26.88l-187.733-128.853c-12.373-8.533-29.44-4.693-37.12 8.533z" />
<glyph unicode="&#xe909;" glyph-name="premiumline" d="M800.853 134.4h-577.707c-28.16 0-52.48 19.2-58.453 46.933l-84.907 378.027c-5.547 24.32 4.267 49.067 24.747 62.72 20.48 14.080 46.933 13.653 67.413 0l161.28-110.507 126.293 220.16c10.667 18.773 30.72 30.293 52.053 30.293s41.387-11.52 52.053-30.293l126.293-220.587 161.28 110.507c20.48 14.080 46.933 14.080 67.413 0s30.293-38.4 24.747-62.72l-84.907-378.027c-5.973-27.733-30.293-46.933-58.453-46.933zM233.387 206.933h557.653l75.52 337.067-146.347-100.267c-13.653-9.387-31.147-12.8-47.36-8.96s-30.293 14.080-38.827 28.587c0 0 0 0 0 0l-122.453 213.333-122.453-213.333c-8.107-14.507-22.187-24.747-38.4-28.587s-33.707-0.427-47.36 8.96l-146.347 100.267 75.52-337.067zM697.173 499.627v0s0 0 0 0z" />
<glyph unicode="&#xe90a;" glyph-name="reenviado" d="M956.587 560.213l-281.173 258.56c-23.040 20.907-55.040 26.453-83.2 13.653-28.587-12.373-46.080-39.68-46.080-70.827v-58.027c-124.16-10.667-479.147-84.907-503.467-586.667-1.28-26.027 14.507-49.067 38.827-57.173 6.4-2.133 12.8-2.987 19.2-2.987 18.773 0 36.693 8.96 47.787 25.6 115.2 168.107 218.88 232.107 397.227 240.213v-77.227c0-31.147 17.493-58.027 46.080-70.827 10.24-4.267 20.907-6.827 31.147-6.827 18.773 0 37.12 7.253 51.627 20.48l281.173 258.56c15.787 14.507 24.747 35.413 24.747 56.747s-8.96 42.24-24.747 56.747z" />
<glyph unicode="&#xe90b;" glyph-name="reset" d="M507.307 868.267c-100.693 0-195.84-35.413-271.787-99.84v63.573c0 20.053-16.213 36.267-36.267 36.267s-36.267-16.213-36.267-36.267v-166.4c0-20.053 16.213-36.267 36.267-36.267h156.16c20.053 0 36.267 16.213 36.267 36.267s-16.213 36.267-36.267 36.267h-85.76c64.853 60.587 148.48 93.867 237.227 93.867 191.573 0 347.733-156.16 347.733-347.733s-156.16-347.733-347.733-347.733c-110.933 0-212.48 51.2-279.040 139.947-29.44 39.253-49.493 83.2-60.16 130.56-4.267 19.627-23.893 32-43.52 27.307-19.627-4.267-31.573-23.893-27.307-43.52 13.227-57.173 37.547-110.507 72.96-157.867 80.213-107.52 203.093-168.96 337.067-168.96 231.68 0 420.267 188.587 420.267 420.267s-188.16 420.267-419.84 420.267z" />
<glyph unicode="&#xe90c;" glyph-name="situacion" d="M292.693 236.8c-16.213-11.52-20.48-34.133-8.96-50.347 7.253-10.24 18.347-15.36 29.867-15.36 7.253 0 14.507 2.133 20.907 6.4l102.4 72.107c49.493-57.173 121.6-91.307 198.827-91.307 145.493 0 263.68 118.187 263.68 263.68 0 65.707-24.32 125.867-64.427 171.947-1.28 2.56-2.56 5.547-4.693 7.68l-220.587 226.56c-57.6 54.187-145.067 54.187-202.667 0l-230.4-215.893c-32-29.867-50.347-72.533-50.347-117.333v-309.76c0-87.040 67.84-157.867 151.467-157.867h495.787c20.053 0 36.267 16.213 36.267 36.267s-16.213 36.267-36.267 36.267h-495.787c-43.52 0-78.933 38.4-78.933 85.333v309.76c0 24.747 9.813 48.213 27.307 64.427l230.4 215.893c29.44 27.733 74.24 27.733 102.4 1.28l89.173-91.307c-3.84 0-8.107 0.427-11.947 0.427-145.493 0-263.68-118.187-263.68-263.68 0-22.613 2.987-45.227 8.533-67.413 3.84-15.36 9.813-29.867 16.64-43.947 0 0 0 0 0 0l-104.107-73.387zM635.733 230.4c-31.573 0-62.293 8.107-89.173 22.613 0.427 1.28 1.707 2.56 2.133 3.84l5.973 18.773c9.387 16.64 34.133 32.853 69.547 32.853h86.187c29.867 0 51.2-10.24 61.44-19.627 0 0 0.853-0.427 1.28-0.853-34.56-35.84-83.2-58.027-136.96-58.027zM666.88 388.267c-29.867 0-54.187 24.32-54.187 54.187 0 14.507 5.547 28.16 15.787 38.4s23.893 15.787 38.4 15.787c29.867 0 54.187-24.32 54.187-54.187s-24.32-54.187-54.187-54.187zM635.733 612.693c105.387 0 191.147-85.76 191.147-191.147 0-26.027-5.12-50.347-14.507-72.96-11.947 9.387-25.173 17.067-40.533 22.613 14.080 20.48 22.187 44.8 22.187 71.253 0 69.973-56.747 126.72-126.72 126.72-33.707 0-65.707-13.227-89.6-37.12s-37.12-55.893-37.12-89.6c0-26.88 8.533-51.627 22.613-72.107-33.28-12.8-60.587-35.413-75.093-64.853-0.427-0.853-0.853-2.133-1.28-2.987-6.827 8.96-13.653 17.92-19.2 28.16-7.253 13.227-12.8 27.733-16.64 42.24-4.267 15.787-6.4 32.427-6.4 49.067 0 105.387 85.76 191.147 191.147 191.147z" />
<glyph unicode="&#xe90d;" glyph-name="todoslosmensajes" d="M280.32 643.413h324.267c20.053 0 36.267 16.213 36.267 36.267s-16.213 36.267-36.267 36.267h-324.267c-20.053 0-36.267-16.213-36.267-36.267s16.213-36.267 36.267-36.267zM280.32 514.133h324.267c20.053 0 36.267 16.213 36.267 36.267s-16.213 36.267-36.267 36.267h-324.267c-20.053 0-36.267-16.213-36.267-36.267s16.213-36.267 36.267-36.267zM813.653 552.107h-8.107v176.64c0 83.627-67.84 151.467-151.467 151.467h-419.413c-83.627 0-151.467-67.84-151.467-151.467v-474.88c0-14.507 8.96-27.733 22.187-33.707 4.693-1.707 9.387-2.56 14.080-2.56 9.387 0 18.773 3.84 25.6 10.667l113.493 113.493h109.653v-94.293c0-68.693 55.893-124.587 124.587-124.587h299.52l84.48-84.48c6.827-6.827 16.213-10.667 25.6-10.667 4.693 0 9.387 0.853 14.080 2.56 13.653 5.547 22.187 18.773 22.187 33.707v363.52c0 68.693-55.893 124.587-124.587 124.587zM155.733 513.28v215.467c0 43.52 35.413 78.933 78.933 78.933h419.413c43.52 0 78.933-35.413 78.933-78.933v-235.52c0-43.52-35.413-78.933-78.933-78.933h-407.893c-5.12 0-9.813-1.28-14.507-2.987-5.547-1.707-10.24-4.267-14.507-8.533l-61.44-61.013v171.947zM865.707 151.467l-32.427 32.427c-3.84 3.84-8.96 6.827-14.080 8.533-4.267 1.707-9.387 2.987-14.507 2.987h-312.747c-28.587 0-52.053 23.467-52.053 52.053v94.293h213.76c78.933 0 142.933 61.013 150.187 137.813h9.387c28.587 0 52.053-23.467 52.053-52.053v-276.053z" />
<glyph unicode="&#xe90e;" glyph-name="tokki" d="M563.627 538.88s44.8 59.307 116.053 94.293c6.4 2.133 10.667 13.227-8.107 13.227h-170.667v225.28c0 20.053-12.373 20.907-35.84 0-17.92-14.507-111.787-95.573-111.787-95.573v-130.133h-99.413v-107.52h99.413v-221.44c0-161.28 92.16-287.573 183.893-335.36 24.32 19.627 112.213 96 112.213 96l-38.827 27.307c-66.133 46.933-109.653 124.587-109.653 212.053v221.44h62.293zM612.693 440.32s56.32 7.253 90.453 41.387c18.347 18.347 29.44 43.52 35.413 68.693 1.707 6.827 1.707 14.080 3.413 20.907 1.28 4.267 4.693 7.68 8.96 7.68 6.4 0 8.533-9.813 9.813-15.36s13.653-67.413 42.24-86.613 38.4-23.467 76.8-32.853c4.267-0.853 8.533-2.987 11.52-3.84 4.267-1.28 6.827-8.107 2.56-11.52-1.28-0.853-2.56-1.28-3.84-1.707-22.187-3.84-43.52-11.093-63.573-21.76-9.813-5.12-19.627-11.947-26.88-20.907-23.893-29.867-29.867-49.92-39.253-85.333-3.84-13.653-7.253-13.653-10.24-13.653-2.133 0-5.12 0.853-12.373 23.893s-15.36 60.16-34.133 74.24-31.147 26.453-87.893 40.107c-12.373 2.987-14.933 14.080-2.56 16.64zM565.333 814.507s33.707 4.267 54.613 24.747c11.093 11.093 17.92 26.027 21.333 41.387 0.853 4.267 0.853 8.533 2.133 12.373 0.853 2.56 2.56 4.693 5.547 4.693 3.84 0 5.12-5.973 5.973-9.387s8.107-40.533 25.173-52.053 23.040-14.080 46.507-20.053c2.56-0.427 5.12-1.707 6.827-2.56 2.56-0.853 4.267-5.12 1.707-6.827-0.853-0.427-1.707-0.853-2.56-0.853-13.227-2.133-26.453-6.827-38.4-13.227-5.973-2.987-11.947-7.253-16.213-12.373-14.507-17.92-17.92-29.867-23.893-51.2-2.133-8.107-4.267-8.107-6.4-8.107-1.28 0-2.987 0-7.253 14.507s-9.387 36.267-20.48 44.8-18.773 15.787-52.907 24.32c-7.253 1.707-8.96 8.533-1.707 10.24zM128.427 379.307s31.147 3.84 49.92 23.040c10.24 10.24 16.213 23.893 19.627 37.973 0.853 3.84 0.853 7.68 2.133 11.52 0.853 2.133 2.56 4.267 5.12 4.267 3.413 0 4.693-5.547 5.547-8.533s7.68-37.12 23.040-47.787 21.333-13.227 42.667-18.347c2.133-0.427 4.693-1.707 6.4-2.133 2.56-0.853 3.84-4.693 1.28-6.4-0.427-0.427-1.28-0.853-2.133-0.853-12.373-2.133-24.32-5.973-34.987-11.947-5.547-2.987-11.093-6.4-14.933-11.52-13.227-16.64-16.213-27.733-21.76-47.36-2.133-7.68-4.267-7.68-5.547-7.68s-2.987 0-6.827 13.227-8.533 33.28-18.773 40.96-17.067 14.507-48.64 22.187c-6.827 1.707-8.107 7.68-1.28 9.387z" />
<glyph unicode="&#xe90f;" glyph-name="zonaprop" d="M315.307 194.56c-20.907-7.253-22.187-35.413-2.133-44.373l80.213-35.413c5.973-2.56 12.8-2.987 19.2-0.853l190.293 66.987v113.067s-287.573-99.413-287.573-99.413zM525.227 100.693c-20.907-7.253-22.187-35.413-1.707-44.373l79.36-34.987v106.667l-77.653-27.307zM746.667 686.933c0 106.24-92.16 192-203.947 187.733-102.4-3.84-185.6-83.627-188.587-181.76-2.987-89.173 59.307-165.12 144.64-187.307v-81.92l-182.613-63.147c-20.907-7.253-22.187-35.413-2.133-44.373l80.213-35.413c5.973-2.56 12.8-2.987 19.2-0.853l189.44 66.56v159.147c83.2 21.76 143.787 94.72 143.787 180.907v0zM550.4 598.187c-50.773 0-92.16 39.253-92.16 87.893s41.387 87.893 92.16 87.893 92.16-39.253 92.16-87.893-41.387-87.893-92.16-87.893z" />
<glyph unicode="&#xe910;" glyph-name="acciones" d="M910.933 253.013l-225.28 211.627 110.933 84.907c19.627 14.933 29.013 39.253 25.173 63.573s-20.907 43.947-44.373 51.627l-596.907 200.107c-23.893 8.107-49.92 1.707-67.413-15.787-17.92-17.92-23.893-43.52-16.213-67.413l196.693-598.187c7.68-23.467 27.307-40.533 51.627-44.373 23.893-4.267 48.64 5.12 63.573 24.747l85.333 110.507 210.347-226.133c12.373-13.653 30.293-21.333 48.64-21.333v0c18.347 0 35.84 7.68 48.64 21.333l51.627 56.32 56.747 52.053c13.653 12.373 21.333 29.867 21.333 48.213s-7.253 36.267-20.907 48.64zM804.267 157.44s-2.987-2.987-3.84-3.84l-47.36-51.627-210.773 226.987c-12.373 13.653-30.293 20.907-48.213 20.907-0.853 0-2.133 0-2.987 0-19.627-0.853-37.547-10.24-49.067-25.6l-82.773-107.093-189.44 574.72 573.44-192-107.52-81.92c-15.36-11.947-24.747-29.867-26.027-49.067-0.853-19.627 6.4-38.4 20.907-51.627l225.707-212.053-52.053-47.36z" />
<glyph unicode="&#xe911;" glyph-name="aceptar" d="M400.213 145.067c-9.387 0-18.773 3.84-25.6 10.667l-234.667 234.667c-14.080 14.080-14.080 37.12 0 51.2s37.12 14.080 51.2 0l206.933-206.933 433.067 503.893c13.227 15.36 35.84 16.64 51.2 3.84 15.36-13.227 17.067-35.84 3.84-51.2l-458.667-533.333c-6.4-7.68-16.213-12.373-26.027-12.373h-1.28z" />
<glyph unicode="&#xe912;" glyph-name="adicionales" d="M656.213 416c-46.933 20.48-100.693 62.293-101.547 63.147-25.173 19.2-39.68 19.2-44.373 19.2s-19.2 0-44.373-19.627c-0.427 0-54.613-42.24-101.547-62.72-94.293-41.387-142.933-110.080-136.96-193.707 2.987-40.96 27.307-80.213 63.573-101.973 20.907-12.8 44.373-19.2 68.267-19.2 19.2 0 38.827 4.267 58.453 12.373l18.773 8.107c35.84 15.36 47.787 20.907 71.253 20.907 26.453 0 44.373-6.827 95.573-28.587 19.627-8.107 39.253-12.373 58.453-12.373 23.893 0 47.36 6.4 68.267 19.2 36.267 22.187 60.587 61.44 63.573 102.4 5.973 83.2-42.667 151.893-136.96 193.707zM721.067 227.413c-1.28-17.92-12.8-35.413-29.013-45.653-12.373-7.68-32.853-14.080-60.587-2.133-52.48 22.187-81.067 34.56-123.733 34.56-37.973 0-61.44-9.813-99.84-26.453l-18.347-7.68c-27.733-11.947-48.64-5.547-60.587 2.133-16.213 9.813-27.733 27.733-29.013 45.653-1.28 19.2-5.547 78.080 93.867 122.027 55.467 24.32 114.347 70.4 116.48 72.107 0 0 0 0 0 0 2.987-2.56 61.867-47.787 116.48-72.107 99.413-43.947 95.573-102.827 93.867-122.027zM837.973 556.373c-52.053 0-94.293-47.36-94.293-104.96s42.24-104.96 94.293-104.96 94.293 47.36 94.293 104.96-42.24 104.96-94.293 104.96zM837.973 418.56c-10.24 0-21.76 13.227-21.76 32.853s11.52 32.853 21.76 32.853 21.76-13.227 21.76-32.853-11.52-32.853-21.76-32.853zM280.32 450.987c0 58.027-42.24 104.96-94.293 104.96s-94.293-47.36-94.293-104.96 42.24-104.96 94.293-104.96 94.293 47.36 94.293 104.96zM186.027 418.56c-10.24 0-21.76 13.227-21.76 32.853s11.52 32.853 21.76 32.853 21.76-13.227 21.76-32.853-11.52-32.853-21.76-32.853zM651.093 511.147c63.147 0 112.64 62.293 112.64 142.080s-49.493 142.080-112.64 142.080-112.64-62.293-112.64-142.080 49.493-142.080 112.64-142.080zM651.093 722.773c18.773 0 40.107-29.867 40.107-69.547s-21.333-69.547-40.107-69.547-40.107 29.867-40.107 69.547 21.333 69.547 40.107 69.547zM373.76 511.147c63.147 0 112.64 62.293 112.64 142.080s-49.493 142.080-112.64 142.080-112.64-62.293-112.64-142.080 49.493-142.080 112.64-142.080zM373.76 722.773c18.773 0 40.107-29.867 40.107-69.547s-21.333-69.547-40.107-69.547-40.107 29.867-40.107 69.547 21.333 69.547 40.107 69.547z" />
<glyph unicode="&#xe913;" glyph-name="adjuntar" d="M880.64 750.933c-68.693 68.693-180.053 68.693-248.747 0l-256.853-256.853c-14.080-14.080-14.080-37.12 0-51.2s37.12-14.080 51.2 0l256.853 256.853c40.533 40.107 105.813 40.107 146.347 0 40.107-40.533 40.107-105.813 0-146.347l-355.413-355.413c-33.707-33.707-80.213-53.333-126.72-51.627-48.213 0.427-94.293 19.627-128.853 54.187-71.253 71.253-72.533 186.027-2.987 255.573l303.787 303.787c14.080 14.080 14.080 37.12 0 51.2s-37.12 14.080-51.2 0l-303.787-303.787c-97.707-97.707-96.427-258.56 2.987-357.973 48.213-48.213 111.787-75.093 179.2-75.52h2.56c66.987 0 129.28 25.6 176.213 72.533l355.413 355.413c68.693 68.693 68.693 180.053 0 248.747z" />
<glyph unicode="&#xe914;" glyph-name="admin" d="M681.813 257.28c-8.96 0-17.92 3.413-24.747 9.813l-52.053 48.213c-14.507 13.653-15.787 36.693-2.133 51.2 13.653 14.933 36.693 15.787 51.2 2.133l25.6-23.467 64.427 69.547c13.653 14.933 36.693 15.787 51.2 2.133s15.787-36.693 2.133-51.2l-88.747-96.427c-6.4-7.253-15.787-11.093-25.173-11.52h-1.28zM916.48 544.853l-168.107 71.253c-1.28 32.427-8.96 64-23.040 93.44-11.947 24.747-27.733 47.36-47.36 66.56-45.653 45.653-106.667 70.827-171.093 70.827-133.547 0-242.347-108.8-242.347-241.92 0-76.373 35.413-144.64 90.88-189.013-107.093-14.507-192.427-71.253-215.893-148.48l-52.48-171.52c-3.413-11.093-1.28-23.040 5.547-32 6.827-9.387 17.493-14.507 29.013-14.507h321.707c20.053 0.427 36.267 17.067 36.267 37.12s-16.213 36.267-36.267 36.267h-272.64s37.973 124.16 37.973 124.16c17.493 57.6 103.68 100.693 200.107 100.693h53.333v-67.413c0-103.253 82.347-194.987 200.107-222.72l28.587-6.827c2.56-0.853 5.547-0.853 8.533-0.853s5.547 0 8.107 0.853l30.293 7.253c118.187 27.733 200.96 119.040 200.96 223.147v231.253c0 14.507-8.533 27.733-22.187 33.28zM337.067 604.587c0 93.44 75.947 169.813 169.813 169.813 45.227 0 87.893-17.493 119.893-49.493 13.653-13.653 24.747-29.44 33.28-46.933 7.68-16.64 11.947-34.133 14.080-52.053l-189.867-81.067c-13.227-5.547-22.187-18.773-22.187-33.28v-69.973c-72.96 19.627-125.013 85.333-125.013 163.413zM866.133 280.32c0-69.973-59.733-132.693-144.64-152.32v0s-21.76-5.12-21.76-5.12l-20.48 4.693c-84.907 20.053-144.213 82.773-144.213 152.32v207.787l164.693 70.4 166.827-70.4v-207.36z" />
<glyph unicode="&#xe915;" glyph-name="agente" d="M843.52 612.267l-230.4 215.893c-57.6 54.187-145.067 54.187-202.667 0l-230.4-215.893c-32-29.867-49.92-72.533-49.92-117.333v-309.333c0-87.040 67.84-157.44 151.467-157.44h460.8c83.627 0 151.467 70.827 151.467 157.44v309.333c0 44.8-18.347 87.467-49.92 117.333zM512 305.067c-49.067 0-89.173 40.107-89.173 89.173s40.107 89.173 89.173 89.173c23.893 0 46.080-9.387 63.147-26.027 16.64-17.067 26.027-39.253 26.027-63.147 0-49.067-40.107-89.173-89.173-89.173zM452.267 223.147h119.040c58.027 0 100.693-26.027 108.373-51.2l21.76-71.68h-379.307l21.76 71.253c7.68 25.173 50.347 51.2 108.373 51.2zM821.333 185.173c0-34.133-18.773-63.573-46.080-77.227l-25.6 84.48c-13.653 45.227-58.453 80.64-116.48 95.147 25.173 28.587 40.533 65.28 40.533 106.24 0 43.093-16.64 83.627-47.36 114.347s-71.253 47.36-114.347 47.36c-89.173 0-161.707-72.533-161.707-161.707 0-40.96 15.787-77.653 40.533-106.24-58.027-14.507-102.4-49.92-116.48-95.147l-25.6-84.48c-27.307 13.653-46.080 43.093-46.080 77.227v309.333c0 24.747 9.813 48.213 27.307 64.427l230.4 215.893c14.933 13.653 33.28 20.907 51.627 20.907s37.12-6.827 51.627-20.907l230.4-215.893c17.493-16.213 27.307-39.68 27.307-64v-309.333z" />
<glyph unicode="&#xe916;" glyph-name="agregar" d="M894.293 484.267h-346.88v347.733c0 20.053-16.213 36.267-36.267 36.267s-36.267-16.213-36.267-36.267v-347.733h-348.587c-20.053 0-36.267-16.213-36.267-36.267s16.213-36.267 36.267-36.267h348.587v-347.733c0-20.053 16.213-36.267 36.267-36.267s36.267 16.213 36.267 36.267v347.733h346.88c20.053 0 36.267 16.213 36.267 36.267s-16.213 36.267-36.267 36.267z" />
<glyph unicode="&#xe917;" glyph-name="aguacorriente" d="M512 27.733c-165.547 0-299.947 134.827-299.947 299.947 0 41.813 8.533 82.347 25.173 120.747 0.853 1.707 2.133 4.267 2.987 5.547l241.92 396.8c6.4 10.667 18.347 17.493 31.147 17.493v0c12.8 0 24.32-6.4 31.147-17.493l233.813-384s1.28-2.56 2.133-3.84l10.667-23.467c14.507-36.693 21.333-73.813 21.333-111.787 0-165.547-134.827-299.947-299.947-299.947zM302.933 417.707c-11.947-27.733-18.347-58.453-18.347-90.027 0-125.44 101.973-227.413 227.413-227.413s227.413 101.973 227.413 227.413c0 28.587-5.12 56.747-15.787 83.627l-8.96 19.627-201.813 331.52-210.347-344.32zM513.28 165.12c-16.213 0-31.147 11.093-34.987 27.733-4.693 19.627 7.253 39.253 26.453 43.947 52.48 12.8 92.587 55.893 101.547 108.8 3.413 19.627 22.187 32.427 41.813 29.44 19.627-3.413 32.853-22.187 29.44-41.813-14.080-81.493-75.093-147.2-155.733-167.253-2.987-0.853-5.973-1.28-8.96-1.28z" />
<glyph unicode="&#xe918;" glyph-name="alertas" d="M513.28 357.547c-20.053 0-36.267 16.213-36.267 36.267v157.013c0 20.053 16.213 36.267 36.267 36.267s36.267-16.213 36.267-36.267v-157.013c0-20.053-16.213-36.267-36.267-36.267zM558.080 270.933c0-24.742-20.058-44.8-44.8-44.8s-44.8 20.058-44.8 44.8c0 24.742 20.058 44.8 44.8 44.8s44.8-20.058 44.8-44.8zM846.080 70.4h-668.16c-32 0-60.587 16.64-76.373 43.947s-16.213 60.587 0 88.32l334.080 578.56c16.213 27.733 44.373 43.947 76.373 43.947v0c32 0 60.587-16.64 76.373-43.947l334.080-578.56c15.787-27.733 15.787-60.587 0-88.32s-44.373-44.373-76.373-44.373zM498.347 744.96l-334.080-578.56c-3.84-6.827-1.707-12.8 0-15.787s5.547-8.107 13.653-8.107h668.16c8.107 0 11.947 5.12 13.653 8.107s3.84 8.96 0 15.787l-334.080 578.56c-3.84 6.827-10.24 7.68-13.653 7.68v0c-3.413 0-9.813-0.853-13.653-8.107v0z" />
<glyph unicode="&#xe919;" glyph-name="ambientes" d="M780.8 868.267h-537.6c-83.627 0-151.467-67.84-151.467-151.467v-537.6c0-83.627 67.84-151.467 151.467-151.467h537.6c83.627 0 151.467 67.84 151.467 151.467v537.6c0 83.627-67.84 151.467-151.467 151.467zM780.8 100.267h-413.867v183.467h198.4c20.053 0 36.267 16.213 36.267 36.267s-16.213 36.267-36.267 36.267h-234.667c-20.053 0-36.267-16.213-36.267-36.267v-219.733h-51.2c-43.52 0-78.933 35.413-78.933 78.933v537.6c0 43.52 35.413 78.933 78.933 78.933h309.333v-138.667h-83.2c-20.053 0-36.267-16.213-36.267-36.267s16.213-36.267 36.267-36.267h119.467c20.053 0 36.267 16.213 36.267 36.267v174.933h155.733c43.52 0 78.933-35.413 78.933-78.933v-230.4h-113.067c-20.053 0-36.267-16.213-36.267-36.267s16.213-36.267 36.267-36.267h113.067v-234.667c0-43.52-35.413-78.933-78.933-78.933z" />
<glyph unicode="&#xe91a;" glyph-name="analisiscontactos" d="M920.32 92.16l-162.987 165.12c52.053 64 83.2 145.92 83.2 234.667 0 206.080-167.68 373.76-373.76 373.76s-373.333-167.68-373.333-373.76c0-32.427 4.267-64.427 12.373-95.573 7.68-29.013 18.773-56.747 32.853-82.773 65.707-120.32 191.573-195.413 328.533-195.413 91.307 0 174.507 32.853 239.36 87.467l162.133-164.267c7.253-7.253 16.64-10.667 26.027-10.667s18.347 3.413 25.6 10.24c14.080 14.080 14.507 37.12 0 51.2zM235.52 299.947c22.187 12.8 52.053 20.48 82.773 20.48h124.587c61.44 0 106.667-27.733 115.2-55.040l16.64-54.187c-33.707-12.8-69.973-20.48-107.947-20.48-90.453 0-174.507 40.96-231.253 109.227zM381.013 402.773c-52.48 0-95.147 42.667-95.147 95.147s42.667 95.147 95.147 95.147c25.173 0 49.067-9.813 67.413-27.733 17.92-17.92 27.733-41.813 27.733-66.987 0-52.48-42.667-95.147-95.147-95.147zM640 246.187l-12.373 40.533c-14.507 47.787-61.867 84.053-123.307 98.987 26.88 29.867 43.947 69.12 43.947 112.213s-17.493 87.040-49.067 118.613c-31.573 31.573-73.813 49.067-118.613 49.067-92.587 0-167.68-75.093-167.68-167.68 0-43.52 17.067-82.773 44.373-112.64-22.613-5.547-43.52-13.227-61.44-24.32-8.533 17.493-15.787 35.413-20.48 54.187-6.4 24.747-9.813 50.773-9.813 76.8 0 165.973 135.253 301.227 301.227 301.227s301.227-135.253 301.227-301.227c0-101.547-50.773-191.147-128-245.76z" />
<glyph unicode="&#xe91b;" glyph-name="appexchange" d="M107.52 406.187s3.413 0 5.12 0c17.92 0 33.28 13.227 35.84 31.573 17.493 128.427 126.293 225.28 253.44 225.28h424.107l-66.987-66.56c-14.080-14.080-14.080-37.12 0-51.2 7.253-7.253 16.213-10.667 25.6-10.667s18.347 3.413 25.6 10.667l127.147 126.72c14.080 14.080 14.080 36.267 0.853 50.773l-128 135.68c-13.653 14.507-36.693 15.36-51.2 1.28-14.507-13.653-15.36-36.693-1.28-51.2l68.693-72.533h-423.68c-162.987 0-302.933-123.733-325.12-288-2.56-19.627 11.093-37.973 31.147-40.96zM916.48 489.813c-20.053 2.987-37.973-11.093-40.96-31.147-17.493-128.427-126.293-225.28-253.44-225.28h-423.68l66.987 66.56c14.080 14.080 14.080 37.12 0 51.2s-37.12 14.080-51.2 0l-127.147-126.72c-14.080-14.080-14.080-36.267-0.853-50.773l128-135.68c7.253-7.68 16.64-11.52 26.453-11.52 8.96 0 17.92 3.413 24.747 9.813 14.507 13.653 15.36 36.693 1.28 51.2l-68.267 72.533h423.68c162.987 0 302.933 123.733 325.12 288 2.56 19.627-11.093 37.973-31.147 40.96z" />
<glyph unicode="&#xe91c;" glyph-name="apple" d="M823.893 233.387c-11.52-26.88-25.173-51.627-41.387-74.24-21.76-31.147-39.68-52.48-53.333-64.427-21.333-19.627-43.947-29.44-68.267-30.293-17.493 0-38.4 5.12-63.147 14.933-24.747 10.24-47.36 14.933-67.84 14.933s-44.8-5.12-69.973-14.933c-24.747-10.24-45.227-15.36-60.587-15.787-23.467-0.853-46.507 9.387-69.973 30.72-14.933 12.8-33.28 34.987-55.467 66.56-23.893 33.707-43.52 72.533-58.88 116.907-16.64 47.787-24.747 94.293-24.747 139.093 0 51.627 11.093 96 33.28 133.12 17.493 29.867 40.96 53.333 69.973 70.827s60.587 26.027 94.72 26.88c18.347 0 43.093-5.547 72.96-17.067 30.293-11.52 49.493-17.067 58.027-17.067 6.4 0 27.733 6.827 64.427 20.053 34.56 12.373 63.573 17.493 87.467 15.36 64.427-5.12 113.067-30.72 145.493-76.373-57.6-34.987-86.187-84.053-85.76-146.773 0.427-49.067 18.347-89.6 53.333-122.027 15.787-14.933 33.707-26.453 53.333-34.987-4.267-12.373-8.96-24.32-13.653-35.413v0zM675.413 816.64c0-38.4-14.080-74.24-41.813-107.52-33.707-39.253-74.667-62.293-119.040-58.453-0.427 4.693-0.853 9.387-0.853 14.507 0 36.693 16.213 76.373 44.373 108.8 14.080 16.213 32.427 29.867 54.187 40.96 21.76 10.667 42.667 16.64 62.293 17.493 0.427-5.12 0.853-10.24 0.853-15.36v0z" />
<glyph unicode="&#xe91d;" glyph-name="archivos" d="M689.493 325.547h-333.227c-20.053 0-36.267-16.213-36.267-36.267s16.213-36.267 36.267-36.267h333.227c20.053 0 36.267 16.213 36.267 36.267s-16.213 36.267-36.267 36.267zM356.267 378.88h223.147c20.053 0 36.267 16.213 36.267 36.267s-16.213 36.267-36.267 36.267h-223.147c-20.053 0-36.267-16.213-36.267-36.267s16.213-36.267 36.267-36.267zM356.267 505.173h127.147c20.053 0 36.267 16.213 36.267 36.267s-16.213 36.267-36.267 36.267h-127.147c-20.053 0-36.267-16.213-36.267-36.267s16.213-36.267 36.267-36.267zM578.56 873.387h-258.56c-83.627 0-151.467-67.84-151.467-151.467v-537.6c0-83.627 67.84-151.467 151.467-151.467h384c83.627 0 151.467 67.84 151.467 151.467v412.16c0 152.747-124.16 276.907-276.907 276.907zM776.96 642.987h-73.387c-22.187 0-40.107 17.92-40.107 40.107v98.56c56.747-26.027 98.987-76.8 113.493-138.667zM704 105.387h-384c-43.52 0-78.933 35.413-78.933 78.933v537.6c0 43.52 35.413 78.933 78.933 78.933h258.56c4.267 0 8.107-0.853 12.373-1.28v-116.48c0-62.293 50.773-112.64 112.64-112.64h79.36v-386.133c0-43.52-35.413-78.933-78.933-78.933z" />
<glyph unicode="&#xe91e;" glyph-name="atras" d="M704.853 27.733c-9.387 0-18.347 3.413-25.6 10.667l-385.707 384c-14.080 14.080-14.080 37.12 0 51.2l381.867 384c14.080 14.080 37.12 14.080 51.2 0s14.080-37.12 0-51.2l-356.267-358.4 359.68-358.4c14.080-14.080 14.080-37.12 0-51.2-7.253-7.253-16.213-10.667-25.6-10.667z" />
<glyph unicode="&#xe91f;" glyph-name="audio" d="M512.427 230.4c113.92 0 206.933 93.013 206.933 206.933v266.24c0 113.92-93.013 206.933-206.933 206.933s-206.933-93.013-206.933-206.933v-266.24c0-113.92 93.013-206.933 206.933-206.933zM378.027 703.573c0 74.24 60.16 134.4 134.4 134.4s134.4-60.16 134.4-134.4v-266.24c0-74.24-60.16-134.4-134.4-134.4s-134.4 60.16-134.4 134.4v266.24zM789.76 475.733c-20.053 0-36.267-16.213-36.267-36.267v-4.267c0-133.12-108.373-241.067-241.067-241.067s-241.067 108.373-241.067 241.067v4.267c0 20.053-16.213 36.267-36.267 36.267s-36.267-16.213-36.267-36.267v-4.267c0-160.427 121.6-293.12 277.333-311.467v-102.827c0-20.053 16.213-36.267 36.267-36.267s36.267 16.213 36.267 36.267v102.827c155.733 17.92 277.333 150.613 277.333 311.467v4.267c0 20.053-16.213 36.267-36.267 36.267z" />
<glyph unicode="&#xe920;" glyph-name="bajada" d="M113.067 696.747c13.653 14.933 36.693 15.36 51.2 1.707l238.933-221.867 122.88 121.6c14.080 14.080 37.12 14.080 51.2 0l293.973-296.96v120.747c0 20.053 16.64 36.267 36.693 36.267v0c20.053 0 36.267-16.213 36.267-36.267v-200.96c-0.427-20.053-16.64-36.267-36.693-36.267h-201.813c-20.053 0.427-36.267 16.64-36.267 36.693s15.787 35.84 36.267 36.267h107.093s-261.547 263.68-261.547 263.68l-122.027-120.32c-14.080-13.653-35.84-14.080-50.347-0.853l-264.107 245.333c-14.507 13.653-15.36 36.693-1.707 51.2z" />
<glyph unicode="&#xe921;" glyph-name="balconterraza" d="M896 90.027h-7.68v282.88h7.68c20.053 0 36.267 16.213 36.267 36.267s-16.213 36.267-36.267 36.267h-82.347v300.8c0 73.387-63.147 132.693-140.373 132.693h-322.56c-77.227 0-140.373-59.733-140.373-132.693v-300.8h-82.347c-20.053 0-36.267-16.213-36.267-36.267s16.213-36.267 36.267-36.267h6.827v-282.88h-6.827c-20.053 0-36.267-16.213-36.267-36.267s16.213-36.267 36.267-36.267h768c20.053 0 36.267 16.213 36.267 36.267s-16.213 36.267-36.267 36.267zM815.787 90.027h-97.707v282.88h97.707v-282.88zM475.307 372.48v-282.88h-97.707v282.88h97.707zM547.84 372.48h97.707v-282.88h-97.707v282.88zM741.12 745.813v-109.227c-63.573 5.547-113.493 25.6-145.92 61.013s-42.667 79.36-46.080 108.8h123.733c37.547 0 67.84-26.88 67.84-60.16zM350.72 806.4h124.16c-2.987-29.44-13.653-73.387-46.080-108.8s-81.92-55.040-145.92-61.013v109.227c0 33.28 30.293 60.16 67.84 60.16zM282.88 562.773c86.187 6.4 153.6 34.987 200.107 86.187 11.52 12.8 21.333 26.453 29.013 40.107 8.107-13.653 17.493-27.307 29.013-40.107 46.507-51.2 113.493-80.213 200.107-86.187v-117.76h-458.24v117.76zM207.36 372.48h97.707v-282.88h-97.707v282.88z" />
<glyph unicode="&#xe922;" glyph-name="banos" d="M893.867 390.4h-78.933v338.347c0 66.133-55.467 119.893-123.307 119.893h-16.213c-55.893 0-102.827-36.693-117.76-86.187-59.733-12.373-105.387-70.827-105.387-141.227 0-20.053 16.213-36.267 36.267-36.267h183.893c20.053 0 36.267 16.213 36.267 36.267 0 58.453-31.573 108.8-76.373 130.987 8.96 13.653 24.32 23.467 43.093 23.467h16.213c28.16 0 51.2-21.333 51.2-47.36v-338.347h-612.693c-20.053 0-36.267-16.213-36.267-36.267s16.213-36.267 36.267-36.267h14.080l58.027-131.84c12.373-29.013 32.853-52.907 57.6-69.973l-3.84-4.267c-13.653-14.507-12.8-37.547 1.707-51.2 6.827-6.4 15.787-9.813 24.747-9.813 9.813 0 19.627 3.84 26.453 11.52l25.6 27.733c4.267 0 8.107-0.853 12.373-0.853h333.653c2.56 0 5.547 0.427 8.107 0.427l26.88-29.013c7.253-7.68 16.64-11.52 26.453-11.52 8.96 0 17.493 2.987 24.747 9.813 14.507 13.653 15.36 36.693 1.707 51.2l-3.84 4.267c26.027 17.067 47.36 41.387 60.16 71.68l56.747 131.84h12.373c20.053 0 36.267 16.213 36.267 36.267s-16.213 36.267-36.267 36.267zM532.48 657.92c9.813 20.907 27.733 34.987 47.787 34.987s37.973-14.080 47.787-34.987h-96zM758.187 214.613c-13.653-32.427-44.373-53.333-78.080-53.333h-333.653c-33.28 0-64 20.907-78.080 53.333l-45.653 103.253h579.413l-44.373-103.253z" />
<glyph unicode="&#xe923;" glyph-name="bold" d="M779.947 392.96c24.32-32.853 36.693-72.533 36.693-119.893 0-65.28-23.467-116.48-70.4-153.6s-111.36-55.467-193.28-55.467h-281.173c-20.907 0-37.547 5.973-49.493 17.493s-17.92 28.16-17.92 49.067v634.88c0 20.907 5.973 37.547 17.92 49.067s28.587 17.493 49.493 17.493h270.080c79.787 0 142.507-17.493 188.16-52.907 45.227-35.413 68.267-84.48 68.267-147.627 0-40.533-10.667-75.947-32-105.813s-51.2-51.627-88.747-65.28c44.373-12.373 78.507-34.987 102.827-67.413zM341.333 508.587h177.493c96.427 0 145.067 35.84 145.067 107.947 0 36.267-11.947 63.147-35.84 80.64s-60.16 26.027-108.8 26.027h-177.493v-214.613zM648.533 200.107c23.467 18.347 34.987 46.507 34.987 84.907s-11.947 66.987-35.413 86.187c-23.467 18.773-60.587 28.16-110.507 28.16h-196.267v-226.56h196.267c50.773 0 87.893 8.96 110.933 27.307z" />
<glyph unicode="&#xe924;" glyph-name="bullets" d="M896 596.48h-564.907c-20.053 0-36.267 16.213-36.267 36.267s16.213 36.267 36.267 36.267h565.333c20.053 0 36.267-16.213 36.267-36.267s-16.213-36.267-36.267-36.267zM896 411.733h-564.907c-20.053 0-36.267 16.213-36.267 36.267s16.213 36.267 36.267 36.267h565.333c20.053 0 36.267-16.213 36.267-36.267s-16.213-36.267-36.267-36.267zM896 226.987h-564.907c-20.053 0-36.267 16.213-36.267 36.267s16.213 36.267 36.267 36.267h565.333c20.053 0 36.267-16.213 36.267-36.267s-16.213-36.267-36.267-36.267zM220.16 632.747c0-25.449-20.631-46.080-46.080-46.080s-46.080 20.631-46.080 46.080c0 25.449 20.631 46.080 46.080 46.080s46.080-20.631 46.080-46.080zM220.16 448c0-25.449-20.631-46.080-46.080-46.080s-46.080 20.631-46.080 46.080c0 25.449 20.631 46.080 46.080 46.080s46.080-20.631 46.080-46.080zM220.16 263.253c0-25.449-20.631-46.080-46.080-46.080s-46.080 20.631-46.080 46.080c0 25.449 20.631 46.080 46.080 46.080s46.080-20.631 46.080-46.080z" />
<glyph unicode="&#xe925;" glyph-name="buscar" d="M920.32 92.16l-162.987 165.12c52.053 64 83.2 145.92 83.2 234.667 0 206.080-167.68 373.76-373.76 373.76s-373.333-167.68-373.333-373.76c0-32 4.267-64.427 12.373-95.573 7.68-28.587 18.773-56.747 32.853-82.773 65.707-120.32 191.573-195.413 328.533-195.413 91.307 0 174.507 32.853 239.36 87.040l162.133-164.693c7.253-7.253 16.64-10.667 26.027-10.667s18.347 3.413 25.6 10.24c14.080 14.080 14.507 37.12 0 51.2zM466.773 190.72c-110.507 0-212.053 60.587-264.533 157.44-11.52 21.333-20.48 43.52-26.453 66.56-6.4 25.173-9.813 50.773-9.813 76.8 0 165.973 135.253 301.227 301.227 301.227s301.227-135.253 301.227-301.227-135.253-301.227-301.227-301.227z" />
<glyph unicode="&#xe926;" glyph-name="busquedareciente" d="M924.587 88.747l-167.253 169.813c52.053 64.427 83.2 146.347 83.2 235.093 0 207.36-168.533 375.467-375.467 375.467-87.040 0-169.387-29.44-235.947-83.2v46.933c0 20.053-16.213 36.267-36.267 36.267s-36.267-16.213-36.267-36.267v-147.2c0-20.053 16.213-36.267 36.267-36.267h138.24c20.053 0 36.267 16.213 36.267 36.267s-16.213 36.267-36.267 36.267h-64.853c55.040 48.213 125.013 74.667 198.827 74.667 167.253 0 302.933-136.107 302.933-303.36s-136.107-303.36-302.933-303.36-302.933 136.107-302.933 303.36c0 20.053-16.213 36.267-36.267 36.267s-36.267-16.213-36.267-36.267c0-207.36 168.533-375.467 375.893-375.467 92.16 0 176.213 33.28 241.493 88.32l166.4-168.533c7.253-7.253 16.64-10.667 26.027-10.667s18.347 3.413 25.6 10.24c14.080 14.080 14.507 37.12 0 51.2z" />
<glyph unicode="&#xe927;" glyph-name="calendario" d="M779.947 791.467h-39.68v40.533c0 20.053-16.213 36.267-36.267 36.267s-36.267-16.213-36.267-36.267v-40.533h-311.467v40.533c0 20.053-16.213 36.267-36.267 36.267s-36.267-16.213-36.267-36.267v-40.533h-39.68c-83.627 0-151.467-67.84-151.467-151.467v-460.8c0-83.627 67.84-151.467 151.467-151.467h535.893c83.627 0 151.467 67.84 151.467 151.467v460.8c0 83.627-67.84 151.467-151.467 151.467zM858.88 179.2c0-43.52-35.413-78.933-78.933-78.933h-536.32c-43.52 0-78.933 35.413-78.933 78.933v460.8c0 43.52 35.413 78.933 78.933 78.933h75.52s0 0 0 0 0 0 0 0h383.573s0 0 0 0 0 0 0 0h75.947c43.52 0 78.933-35.413 78.933-78.933v-460.8zM741.973 599.467h-460.8c-20.053 0-36.267-16.213-36.267-36.267s16.213-36.267 36.267-36.267h460.8c20.053 0 36.267 16.213 36.267 36.267s-16.213 36.267-36.267 36.267z" />
<glyph unicode="&#xe928;" glyph-name="camara" d="M781.227 699.733h-44.8c-9.387 41.387-39.253 79.787-120.747 79.787h-207.36c-81.493 0-111.787-38.4-120.747-79.787h-44.8c-83.2 0-151.040-67.84-151.040-151.040v-269.653c0-83.2 67.84-151.040 151.040-151.040h538.453c83.2 0 151.040 67.84 151.040 151.040v269.653c0 83.2-67.84 151.040-151.040 151.040zM860.16 279.040c0-43.52-35.413-78.507-78.507-78.507h-538.453c-43.52 0-78.507 35.413-78.507 78.507v269.653c0 43.52 35.413 78.507 78.507 78.507h77.227c20.053 0 36.267 16.213 36.267 36.267 0 0.427 0 0.853 0 1.707 0 0.427 0 0.853 0 1.707 0 28.16 5.12 40.107 52.053 40.107h207.36c46.933 0 52.053-12.373 52.053-40.107 0-0.427 0-0.853 0-1.707 0-0.427 0-0.853 0-1.707 0-20.053 16.213-36.267 36.267-36.267h77.227c43.52 0 78.507-35.413 78.507-78.507v-269.653zM512.427 606.293c-94.293 0-170.667-76.373-170.667-170.667s76.373-170.667 170.667-170.667 170.667 76.373 170.667 170.667-76.373 170.667-170.667 170.667zM512.427 337.493c-54.187 0-98.133 43.947-98.133 98.133s43.947 98.133 98.133 98.133 98.133-43.947 98.133-98.133-43.947-98.133-98.133-98.133z" />
<glyph unicode="&#xe929;" glyph-name="celular" d="M679.68 868.267h-345.6c-72.96 0-132.267-59.307-132.267-132.267v-576c0-72.96 59.307-132.267 132.267-132.267h345.6c72.96 0 132.267 59.307 132.267 132.267v576c0 72.96-59.307 132.267-132.267 132.267zM334.080 795.733h345.6c32.853 0 59.733-26.88 59.733-59.733v-482.133h-465.067v482.133c0 32.853 26.88 59.733 59.733 59.733zM679.68 100.267h-345.6c-32.853 0-59.733 26.88-59.733 59.733v21.333h465.067v-21.333c0-32.853-26.88-59.733-59.733-59.733zM506.88 678.4c21.333 0 38.4 17.067 38.4 38.4s-17.067 38.4-38.4 38.4-38.4-17.067-38.4-38.4 17.067-38.4 38.4-38.4z" />
<glyph unicode="&#xe92a;" glyph-name="center-align" d="M896 710.4h-768c-20.053 0-36.267 16.213-36.267 36.267s16.213 36.267 36.267 36.267h768c20.053 0 36.267-16.213 36.267-36.267s-16.213-36.267-36.267-36.267zM738.133 511.147h-452.267c-20.053 0-36.267 16.213-36.267 36.267s16.213 36.267 36.267 36.267h452.267c20.053 0 36.267-16.213 36.267-36.267s-16.213-36.267-36.267-36.267zM780.373 312.32h-524.373c-20.053 0-36.267 16.213-36.267 36.267s16.213 36.267 36.267 36.267h524.373c20.053 0 36.267-16.213 36.267-36.267s-16.213-36.267-36.267-36.267zM896 113.067h-755.627c-20.053 0-36.267 16.213-36.267 36.267s16.213 36.267 36.267 36.267h755.627c20.053 0 36.267-16.213 36.267-36.267s-16.213-36.267-36.267-36.267z" />
<glyph unicode="&#xe92b;" glyph-name="cerrar" d="M915.627 98.987l-357.547 349.44 350.293 358.4c14.080 14.507 13.653 37.12-0.427 51.2-14.507 14.080-37.12 13.653-51.2-0.427l-350.293-357.973-358.827 350.293c-14.507 14.080-37.547 13.653-51.2-0.427-14.080-14.507-13.653-37.12 0.427-51.2l358.827-350.72-350.293-358.4c-14.080-14.507-13.653-37.12 0.427-51.2 7.253-6.827 16.213-10.24 25.173-10.24s18.773 3.413 26.027 10.667l350.293 357.973 357.12-349.44c7.253-6.827 16.213-10.24 25.173-10.24s18.773 3.413 26.027 10.667c14.080 14.507 13.653 37.12-0.427 51.2z" />
<glyph unicode="&#xe92c;" glyph-name="cerraroportunidad" d="M921.173 140.8l-321.28 305.493 87.467 87.467c8.96-2.987 18.347-5.12 28.16-5.12 22.187 0 43.093 8.533 58.88 24.32l26.453 26.453c15.787 15.787 24.32 36.693 24.32 58.88s-8.533 43.093-24.32 58.88l-180.907 181.333c-31.147 31.573-86.187 31.573-117.333 0l-26.453-26.453c-27.733-27.733-31.573-69.547-11.947-101.547l-224.853-224.853c-31.147 15.787-69.973 11.093-96-14.933l-26.88-26.88c-15.787-15.787-24.32-36.693-24.32-58.453s8.533-43.093 24.32-58.453l181.333-181.333c16.213-16.213 37.547-24.32 58.453-24.32s42.667 8.107 58.453 24.32l26.88 26.88c15.787 15.787 24.32 36.693 24.32 58.453 0 11.947-2.56 23.467-7.68 34.133l90.88 90.88 322.56-306.773c7.253-6.827 16.213-9.813 25.173-9.813 9.387 0 19.2 3.84 26.453 11.093 13.653 14.507 13.227 37.547-1.28 51.2zM527.36 800.853l26.453 26.453s4.693 2.987 7.68 2.987 5.547-0.853 7.253-2.987l180.907-180.907c4.267-4.267 4.267-10.667 0-14.933l-26.453-26.453c-4.267-4.267-10.667-4.267-14.933 0h-0.427s0 0.853 0 0.853l-168.96 168.96s0 0 0 0l-11.52 11.52c-4.267 4.267-4.267 10.667 0 14.933zM513.28 697.173l117.333-117.333-218.88-218.88-117.333 117.333 218.88 218.88zM389.973 262.827l-26.88-26.88c-4.267-4.267-10.667-3.84-14.933 0l-181.333 181.333c-2.56 2.56-2.987 5.547-2.987 7.253s0.427 4.693 2.987 7.253l26.88 26.88s4.693 2.987 7.253 2.987 5.12-0.853 7.253-2.987l181.333-181.333c2.56-2.56 2.987-5.547 2.987-7.253s-0.427-4.693-2.987-7.253z" />
<glyph unicode="&#xe92d;" glyph-name="check" d="M512 27.733c-231.68 0-420.267 188.587-420.267 420.267s188.587 420.267 420.267 420.267 420.267-188.587 420.267-420.267-188.587-420.267-420.267-420.267zM512 795.733c-191.573 0-347.733-156.16-347.733-347.733s156.16-347.733 347.733-347.733 347.733 156.16 347.733 347.733-156.16 347.733-347.733 347.733zM506.027 307.627c-8.533 0-17.067 2.987-24.32 9.387l-116.48 104.107c-14.933 13.227-16.213 36.267-2.987 51.2s36.267 16.213 51.2 2.987l90.027-80.213 180.907 193.28c13.653 14.507 36.693 15.36 51.2 1.707s15.36-36.693 1.707-51.2l-205.227-218.88c-7.253-7.68-16.64-11.52-26.453-11.52z" />
<glyph unicode="&#xe92e;" glyph-name="cochera" d="M852.053 451.413v86.613c0 66.56-60.587 120.747-135.68 120.747h-398.507c-74.667 0-135.68-54.187-135.68-120.747v-86.613c-43.947-22.613-74.24-67.413-74.24-120.32v-53.333c0-66.133 47.787-121.173 110.507-133.12v-30.293c0-27.733 22.613-50.773 50.773-50.773h26.88c27.733 0 50.773 22.613 50.773 50.773v27.733h341.333v-27.733c0-27.733 22.613-50.773 50.773-50.773h26.88c27.733 0 50.773 22.613 50.773 50.773v30.293c62.72 11.947 110.507 66.987 110.507 133.12v53.333c0 52.48-30.293 97.707-74.24 120.32zM317.867 586.24h398.933c34.133 0 63.147-22.187 63.147-48.213v-71.253h-76.8c-7.68 36.267-39.68 63.573-78.507 63.573s-70.827-27.307-78.507-63.573h-290.987v71.253c0 26.027 29.013 48.213 63.147 48.213zM853.76 278.187c0-34.56-28.16-63.147-63.147-63.147h-546.987c-34.56 0-63.147 28.16-63.147 63.147v53.333c0 34.56 28.16 63.147 63.147 63.147h546.987c34.56 0 63.147-28.16 63.147-63.147v-53.333zM602.453 340.907h-170.667c-20.053 0-36.267-16.213-36.267-36.267s16.213-36.267 36.267-36.267h170.667c20.053 0 36.267 16.213 36.267 36.267s-16.213 36.267-36.267 36.267zM282.453 341.76c-20.48 0-37.12-16.64-37.12-37.12s16.64-37.12 37.12-37.12 37.12 16.64 37.12 37.12-16.64 37.12-37.12 37.12zM751.787 341.76c-20.48 0-37.12-16.64-37.12-37.12s16.64-37.12 37.12-37.12 37.12 16.64 37.12 37.12-16.64 37.12-37.12 37.12zM890.027 795.733c20.053 0 36.267 16.213 36.267 36.267s-16.213 36.267-36.267 36.267h-756.907c-20.053 0-36.267-16.213-36.267-36.267s16.213-36.267 36.267-36.267h756.907z" />
<glyph unicode="&#xe92f;" glyph-name="colapsar" d="M921.6 284.587l-384 381.867c-14.080 14.080-37.12 14.080-51.2 0l-384-385.707c-14.080-14.080-14.080-37.12 0-51.2 7.253-7.253 16.213-10.667 25.6-10.667s18.773 3.413 25.6 10.667l358.4 359.68 358.4-356.267c14.080-14.080 37.12-14.080 51.2 0s14.080 37.12 0 51.2z" />
<glyph unicode="&#xe930;" glyph-name="colega" d="M896 786.347h-433.493c-38.827 0-77.227-15.787-104.533-43.52l-9.387-9.387h-220.587c-20.053 0-36.267-16.213-36.267-36.267v-330.667c0-20.053 16.213-36.267 36.267-36.267h90.88l194.987-192.427c12.373-12.373 37.12-28.587 66.56-28.587 15.787 0 33.28 4.693 50.773 17.067 15.36 11.093 24.747 24.747 29.867 40.107 19.627-2.987 40.107 0.853 58.88 14.507 17.493 12.8 26.88 27.307 32 40.533 20.053-1.707 39.253 4.693 55.893 17.92 17.92 14.080 27.307 29.867 32 43.52 0.853 0 1.707 0 2.133 0 20.907-1.707 41.387 5.12 58.453 19.627 19.2 16.64 29.867 37.547 31.573 60.587 0 5.547 0 11.093-0.427 16.213h64.427c20.053 0 36.267 16.213 36.267 36.267v334.507c0 20.053-16.213 36.267-36.267 36.267zM753.493 357.547c-2.56-2.133-3.84-2.133-5.12-2.133-8.96 0.427-22.613 11.093-30.293 19.627 0 0 0 0-0.853 0.853 0 0 0 0 0 0v0s-2.56 2.987-2.987 3.413c0 0-0.853 0-0.853 0.853l-97.707 98.133c-14.080 14.080-37.12 14.507-51.2 0-14.080-14.080-14.080-37.12 0-51.2l99.413-99.84s0 0 0 0c3.84-4.693 8.533-12.8 8.107-18.773 0-4.267-4.693-8.96-8.533-11.52-9.813-8.107-25.173 8.533-29.44 13.227-1.707 1.707-2.56 2.987-2.987 3.413 0 0-0.853 0.427-1.28 0.853 0 0 0 0 0 0l-71.68 75.093c-13.653 14.507-36.693 14.933-51.2 1.28s-14.933-36.693-1.28-51.2l71.68-75.093s0.427 0 0.427-0.427c0.427-0.427 0.427-0.853 1.28-1.28 2.56-3.413 6.4-10.24 5.973-14.507 0-2.987-5.547-7.253-7.253-8.533-6.827-5.12-21.76 6.827-30.293 15.36 0 0-0.427 0.853-0.853 1.28l-62.293 65.28c-14.080 14.507-36.693 14.933-51.2 1.28s-14.933-36.693-1.28-51.2l52.907-55.467c2.56-4.267 13.653-24.32 5.12-30.72-7.68-5.547-15.787-4.267-23.893 3.413l-206.080 203.52c-6.827 6.827-15.787 10.667-25.6 10.667h-69.547v258.133h111.787l-58.453-58.88c-22.613-25.6-40.107-78.933 5.547-119.893 40.96-36.693 90.027-17.92 113.067 4.267l90.027 88.32c3.413 3.413 8.107 5.12 12.8 5.12h84.053c21.333 0 41.387-8.107 56.747-23.040l69.973-67.84s0 0 0 0l100.267-97.707c8.107-9.813 15.36-23.467 3.413-33.707zM859.733 451.84h-67.84l-43.947 42.667c63.147 31.573 83.627 102.4 84.48 144.64 0.427 20.053-15.36 36.267-35.413 37.12 0 0-0.853 0-0.853 0-19.627 0-35.413-15.36-36.267-34.987-0.427-14.080-7.253-79.787-71.68-88.32l-58.453 56.747c-29.013 28.16-66.987 43.52-107.52 43.52h-84.053c-23.893 0-46.507-8.96-63.573-26.027l-89.173-87.467c-8.96-7.68-12.8-4.267-14.507-2.987-3.413 2.987-8.107 7.253-1.28 16.213l119.040 119.040s0 0 0 0l20.053 20.053c14.080 14.080 33.707 22.187 53.333 22.187h397.227v-261.973z" />
<glyph unicode="&#xe931;" glyph-name="comparar" d="M522.24 25.6c-20.053 0-36.267 16.213-36.267 36.267v772.267c0 20.053 16.213 36.267 36.267 36.267s36.267-16.213 36.267-36.267v-772.267c0-20.053-16.213-36.267-36.267-36.267zM413.013 158.72h-104.107c-34.133 0-62.293 30.293-62.293 67.413v264.533c0 19.627 7.68 37.973 21.333 51.2l144.64 135.68v99.413l-194.133-181.76c-28.16-26.453-44.373-64.427-44.373-104.107v-264.533c0-77.227 60.587-139.947 134.827-139.947h104.107v72.533zM808.107 594.347l-176.64 165.12v-99.413l127.147-119.040c13.653-12.8 21.76-31.573 21.76-51.2v-264.533c0-37.12-27.733-67.413-62.293-67.413h-86.187v-72.533h86.187c74.24 0 134.827 62.72 134.827 139.947v264.533c0 39.68-16.213 77.227-44.373 104.107z" />
<glyph unicode="&#xe932;" glyph-name="compartir" d="M780.8 330.667c-43.947 0-83.2-19.2-110.933-49.067l-280.747 127.573c3.413 12.373 5.547 25.173 5.547 38.827s-2.133 26.453-5.547 38.827l280.747 127.573c27.733-29.867 66.987-49.067 110.933-49.067 83.627 0 151.467 67.84 151.467 151.467s-67.84 151.467-151.467 151.467-151.467-67.84-151.467-151.467c0-13.653 2.133-26.453 5.547-38.827l-280.747-127.573c-27.733 29.867-66.987 49.067-110.933 49.067-83.627 0-151.467-67.84-151.467-151.467s67.84-151.467 151.467-151.467c43.947 0 83.2 19.2 110.933 49.067l280.747-127.573c-3.413-12.373-5.547-25.173-5.547-38.827 0-83.627 67.84-151.467 151.467-151.467s151.467 67.84 151.467 151.467-67.84 151.467-151.467 151.467zM780.8 795.733c43.52 0 78.933-35.413 78.933-78.933s-35.413-78.933-78.933-78.933-78.933 35.413-78.933 78.933 35.413 78.933 78.933 78.933zM243.2 369.067c-43.52 0-78.933 35.413-78.933 78.933s35.413 78.933 78.933 78.933 78.933-35.413 78.933-78.933-35.413-78.933-78.933-78.933zM780.8 100.267c-43.52 0-78.933 35.413-78.933 78.933s35.413 78.933 78.933 78.933 78.933-35.413 78.933-78.933-35.413-78.933-78.933-78.933z" />
<glyph unicode="&#xe933;" glyph-name="comprar" d="M899.84 676.693c-16.64 22.613-43.093 36.267-71.253 36.267h-547.84l-35.413 128.853c-4.267 15.787-18.773 26.453-34.987 26.453h-71.253c-20.053 0-36.267-16.213-36.267-36.267s16.213-36.267 36.267-36.267h43.947l132.693-480.853 1.707-6.827s0 0 0 0l22.187-79.787c-32-18.773-54.187-52.907-54.187-93.013 0-59.307 48.213-107.52 107.52-107.52s107.52 48.213 107.52 107.52c0 12.373-2.56 24.32-6.4 35.413h133.12c-3.84-11.093-6.4-22.613-6.4-35.413 0-59.307 48.213-107.52 107.52-107.52s107.52 48.213 107.52 107.52-48.213 107.52-107.52 107.52h-318.293l-10.667 38.4h305.493c61.867 0 116.053 39.253 135.253 98.133l71.68 218.453c8.96 26.453 4.267 56.32-12.373 78.933zM392.96 100.267c-19.627 0-35.413 15.787-35.413 34.987s15.787 35.413 35.413 35.413 35.413-15.787 35.413-35.413-15.787-34.987-35.413-34.987zM728.747 100.267c-19.627 0-35.413 15.787-35.413 34.987s15.787 35.413 35.413 35.413 35.413-15.787 35.413-35.413-15.787-34.987-35.413-34.987zM843.093 620.373l-71.68-218.453c-9.387-29.013-36.267-48.213-66.56-48.213h-325.12l-78.507 286.72h527.36c6.827 0 10.667-3.84 12.373-6.4 1.707-2.133 4.267-7.253 2.133-13.653z" />
<glyph unicode="&#xe934;" glyph-name="condicion" d="M843.947 614.4l-230.4 215.893c-57.6 54.187-145.067 54.187-202.667 0l-230.4-215.893c-32-29.867-50.347-72.533-50.347-117.333v-309.76c0-87.040 67.84-157.867 151.467-157.867h461.227c83.627 0 151.467 70.827 151.467 157.867v309.76c0 44.8-18.347 87.467-50.347 117.333zM821.76 187.307c0-46.933-35.413-85.333-78.933-85.333h-461.227c-43.52 0-78.933 38.4-78.933 85.333v309.76c0 24.747 9.813 48.213 27.307 64.427l230.4 215.893c14.933 13.653 33.28 20.907 51.627 20.907s37.12-6.827 51.627-20.907l70.4-65.707s-2.987-1.28-4.267-2.133l-127.147-104.533c-12.373-10.24-16.64-27.307-10.24-42.24l69.547-162.987-61.867-61.867c-14.080-14.080-14.080-37.12 0-51.2 7.253-7.253 16.213-10.667 25.6-10.667s18.773 3.413 25.6 10.667l79.36 79.36c10.667 10.667 13.653 26.453 7.68 39.68l-68.693 160.853 106.24 87.467c3.84 2.987 6.827 6.827 8.96 10.667l109.653-102.4c17.493-16.213 27.307-39.68 27.307-64.427v-309.76z" />
<glyph unicode="&#xe935;" glyph-name="configuracion" d="M505.173 606.293c-87.040 0-158.293-70.827-158.293-158.293s70.827-158.293 158.293-158.293 158.293 70.827 158.293 158.293-70.827 158.293-158.293 158.293zM505.173 362.24c-47.36 0-85.76 38.4-85.76 85.76s38.4 85.76 85.76 85.76 85.76-38.4 85.76-85.76-38.4-85.76-85.76-85.76zM875.52 392.107l-71.253 44.8 74.667 40.107c28.16 15.36 42.24 47.36 34.133 77.653-17.92 66.987-52.48 129.28-99.84 179.2-21.333 22.187-55.040 27.307-82.773 12.373l-69.12-37.547v78.507c0 31.573-20.907 58.88-50.773 66.987-66.56 17.493-140.8 17.493-205.653 0.853-30.293-7.68-51.2-34.987-51.2-66.987v-67.84l-56.32 35.413c-27.307 17.067-61.867 13.653-84.48-8.107-49.493-48.213-86.613-108.8-107.52-174.933-8.96-29.44 2.987-61.44 29.44-78.507l59.733-37.547-61.44-33.28c-27.733-14.933-41.813-46.080-34.56-76.373 16.213-66.987 49.493-129.707 96-181.333 20.907-23.467 55.467-29.013 83.627-13.653l75.52 40.96v-87.040c0-31.573 20.907-59.307 51.2-66.987 32.427-8.107 66.56-12.373 101.547-12.373s69.973 4.267 103.68 12.8c30.293 7.68 51.2 35.413 51.2 66.987v56.32l48.213-30.293c26.453-16.64 61.013-13.653 83.2 7.253 50.773 47.36 89.6 106.667 111.36 171.947 10.24 29.867-1.707 62.72-29.013 79.787zM746.24 196.267l-51.2 32.427c-21.333 13.227-48.213 14.080-70.4 2.133-22.187-12.373-35.84-35.413-35.84-60.587v-59.733c-53.333-12.8-111.36-12.8-162.56-0.427v90.027c0 24.747-12.373 46.933-33.707 59.307s-46.507 13.227-68.267 1.28l-78.507-42.24c-36.693 41.387-63.147 90.88-76.373 143.787l64.427 34.987c21.76 11.947 35.413 33.707 36.267 58.453s-11.093 47.787-32.427 61.013l-62.293 39.253c16.64 52.053 46.080 99.84 84.907 138.667l59.307-37.547c21.333-13.227 48.213-14.080 70.4-2.133s35.84 35.413 35.84 60.587v71.68c51.2 12.373 110.080 12.373 162.56-0.853v-81.493c0-24.747 12.373-46.933 33.707-59.307 21.333-12.8 46.507-13.227 68.267-1.28l72.107 38.827c37.12-40.107 64.427-89.173 78.933-142.080l-77.653-41.813c-21.76-11.947-35.413-33.707-36.267-58.453s11.093-47.787 32.427-61.013l74.24-46.507c-17.92-51.2-48.213-98.133-88.32-136.107z" />
<glyph unicode="&#xe936;" glyph-name="consultas" d="M384.427 448c0-23.564-19.294-42.667-43.093-42.667s-43.093 19.103-43.093 42.667c0 23.564 19.294 42.667 43.093 42.667s43.093-19.103 43.093-42.667zM555.093 448c0-23.564-19.294-42.667-43.093-42.667s-43.093 19.103-43.093 42.667c0 23.564 19.294 42.667 43.093 42.667s43.093-19.103 43.093-42.667zM725.76 448c0-23.564-19.294-42.667-43.093-42.667s-43.093 19.103-43.093 42.667c0 23.564 19.294 42.667 43.093 42.667s43.093-19.103 43.093-42.667zM512 868.267c-231.68 0-420.267-186.453-420.267-415.147 0-1.707 0.853-2.987 0.853-4.693s-0.853-2.987-0.853-4.693v-379.733c0-13.227 7.253-25.173 18.773-31.573 5.547-2.987 11.52-4.693 17.493-4.693 6.827 0 13.227 1.707 19.2 5.547l137.387 85.333c17.067 10.667 22.187 32.853 11.52 49.92s-32.853 22.187-49.92 11.52l-81.92-50.773v314.88s-0.853 2.987-0.853 4.693c0 1.707 0.853 2.987 0.853 4.693 0 188.587 156.16 342.187 347.733 342.187s347.733-153.6 347.733-342.613-156.16-342.613-347.733-342.613c-29.867 0-59.307 3.84-88.32 11.093-19.2 5.12-39.253-6.827-44.373-26.027s6.827-39.253 26.027-44.373c34.56-8.96 70.4-13.227 106.24-13.227 231.68 0 420.267 186.453 420.267 415.147s-188.16 415.147-419.84 415.147z" />
<glyph unicode="&#xe937;" glyph-name="contactos" d="M931.413 97.707l-52.053 171.093c-23.467 77.227-109.227 133.973-216.32 148.48 55.467 44.373 90.88 112.64 90.88 189.013 0 64.853-25.173 125.44-70.827 171.093s-106.667 70.827-171.093 70.827c-133.547 0-242.347-108.8-242.347-242.347 0-76.373 35.413-144.64 90.88-189.013-107.093-14.507-192.853-71.253-216.32-148.48l-52.48-171.52c-3.413-11.093-1.28-23.040 5.547-32 6.827-9.387 17.493-14.507 29.013-14.507h769.707c11.52 0.427 22.187 5.973 29.013 15.36s8.96 21.333 5.547 32zM512 775.68c45.227 0 87.893-17.493 119.893-49.493s49.493-74.667 49.493-119.893c0-93.44-75.947-169.813-169.813-169.813s-169.813 75.947-169.813 169.813 75.947 169.813 169.813 169.813zM176.213 122.88l37.973 125.013c17.493 57.6 103.68 100.693 200.107 100.693h195.413c96.427 0 182.613-43.52 200.107-100.693l37.973-124.16h-671.573z" />
<glyph unicode="&#xe938;" glyph-name="contactoscreadosporetiqueta" d="M694.187 740.267c-27.733 1.28-52.907-10.24-72.107-29.44s-30.293-44.373-30.293-71.68c0-27.307 10.24-52.907 29.44-72.107s44.373-30.293 71.68-30.293h0.853c26.88 0 52.053 10.24 71.253 29.44s30.293 44.373 30.293 71.68c0 27.307-10.24 52.907-29.44 72.107s-44.373 30.293-71.68 30.293zM713.813 617.813c-5.547-5.547-12.8-8.533-20.48-8.533v0c-7.68 0-14.933 2.987-20.48 8.533s-8.533 12.8-8.533 20.48c0 7.68 2.987 14.933 8.533 20.48s12.8 8.533 20.48 8.533v0c7.68 0 14.933-2.987 20.48-8.533s8.533-12.8 8.533-20.48c0-7.68-2.987-14.933-8.533-20.48zM903.68 739.413c-3.84 57.173-48.213 101.973-104.96 106.667l-258.56 21.76c-34.133 2.987-66.56-8.96-90.453-32.853l-310.613-306.773c-45.227-44.373-45.653-117.333-1.28-162.56l110.080-111.787c4.267-4.267 8.96-6.827 14.080-8.533 13.227-122.027 116.907-217.6 242.773-217.6s237.227 103.253 243.627 232.533c5.973 1.707 11.52 4.267 16.213 8.533l123.307 122.027c23.893 23.467 36.267 56.32 33.707 90.027l-18.347 258.987zM657.067 194.987c-13.227 12.373-29.44 22.187-48.64 29.013 13.653 20.053 21.76 44.373 21.76 70.4 0 33.707-13.227 64.853-36.693 88.747-23.893 23.893-55.040 36.693-88.747 36.693-69.12 0-125.44-56.32-125.44-125.44 0-26.027 8.107-50.347 21.76-70.4-19.2-6.827-35.84-16.64-48.64-29.013-11.52 23.040-18.773 49.067-18.773 76.8 0 94.72 76.8 171.52 171.52 171.52s171.52-76.8 171.52-171.52c0-27.733-7.253-53.333-18.773-76.8zM504.747 241.493c-29.44 0-52.907 23.893-52.907 52.907s23.893 52.907 52.907 52.907c14.080 0 27.307-5.547 37.547-15.36 9.813-10.24 15.36-23.467 15.36-37.547 0-29.44-23.893-52.907-52.907-52.907zM398.507 138.24c7.68 11.52 30.72 24.32 64 24.32h84.907c33.28 0 55.893-12.8 63.573-24.32-29.44-23.467-65.707-37.973-106.24-37.973s-76.8 14.507-106.24 37.973zM836.693 442.453l-99.413-98.133c-31.147 98.987-123.733 171.52-232.96 171.52s-206.933-76.373-235.093-180.053l-80.213 81.067c-16.64 16.64-16.213 43.52 0 60.16l310.613 306.773c8.96 8.96 21.333 13.227 33.28 11.947l258.56-21.76c20.907-1.707 37.547-18.347 38.827-39.253l18.347-258.987c0.853-12.373-3.84-24.32-12.373-33.28z" />
<glyph unicode="&#xe939;" glyph-name="copiar" d="M669.44 910.080h-236.8c-78.080 0-141.653-63.573-141.653-141.653v-32s0 0 0 0h-67.413c-75.947 0-137.813-61.867-137.813-137.813v-474.027c0-75.947 61.867-137.813 137.813-137.813h338.773c75.947 0 137.813 61.867 137.813 137.813v10.24h84.48c78.080 0 141.653 63.573 141.653 141.653v376.747c0 141.653-115.2 256.853-256.853 256.853zM847.36 698.88h-63.147c-18.773 0-33.707 15.36-33.707 33.707v85.333c47.787-23.467 83.2-66.56 96.853-119.040zM562.347 58.453h-338.773c-35.84 0-65.28 29.44-65.28 65.28v474.027c0 35.84 29.44 65.28 65.28 65.28h227.84c2.133 0 4.267-0.427 6.827-0.853v-98.987c0-57.173 46.507-103.68 103.68-103.68h65.707v-336.213c0-35.84-29.44-65.28-65.28-65.28zM530.773 643.84c43.947-22.613 77.227-62.293 90.027-110.933h-58.88c-17.067 0-31.147 14.080-31.147 31.147v79.787zM784.64 206.507h-84.48v280.747c0 136.96-111.36 248.747-248.747 248.747h-87.893s0 0 0 0v32c0 37.973 31.147 69.12 69.12 69.12h236.8c2.987 0 5.547-0.853 8.533-0.853v-103.68c0-58.453 47.787-106.24 106.24-106.24h69.547v-350.72c0-37.973-31.147-69.12-69.12-69.12z" />
<glyph unicode="&#xe93a;" glyph-name="cronometro" d="M631.040 315.733h-119.040c-20.053 0-36.267 16.213-36.267 36.267v162.987c0 20.053 16.213 36.267 36.267 36.267s36.267-16.213 36.267-36.267v-126.72h82.773c20.053 0 36.267-16.213 36.267-36.267s-16.213-36.267-36.267-36.267zM512 27.733c-199.68 0-362.24 162.56-362.24 362.24s162.56 362.24 362.24 362.24 362.24-162.56 362.24-362.24-162.56-362.24-362.24-362.24zM512 679.68c-159.573 0-289.707-130.133-289.707-289.707s129.707-289.707 289.707-289.707 289.707 129.707 289.707 289.707-130.133 289.707-289.707 289.707zM598.187 795.733h-174.080c-20.053 0-36.267 16.213-36.267 36.267s16.213 36.267 36.267 36.267h174.080c20.053 0 36.267-16.213 36.267-36.267s-16.213-36.267-36.267-36.267z" />
<glyph unicode="&#xe93b;" glyph-name="cubierta" d="M778.667 865.28h-381.013c-83.2 0-150.613-67.413-150.613-150.613v-381.013c0-83.2 67.413-150.613 150.613-150.613h381.013c83.2 0 150.613 67.413 150.613 150.613v381.013c0 83.2-67.413 150.613-150.613 150.613zM319.573 600.32h384.853v-192.427h-384.853v192.427zM704.427 672.853h-206.507v119.893h206.507v-119.893zM397.653 792.747h28.16v-119.893h-106.24v41.813c0 43.093 34.987 78.080 78.080 78.080zM319.573 333.653v1.707h384.853v-79.787h-306.773c-43.093 0-78.080 34.987-78.080 78.080zM856.747 333.653c0-43.093-34.987-78.080-78.080-78.080h-1.707v537.173h1.707c43.093 0 78.080-34.987 78.080-78.080v-381.013zM893.013 100.267h-725.76v731.733c0 20.053-16.213 36.267-36.267 36.267s-36.267-16.213-36.267-36.267v-768c0-20.053 16.213-36.267 36.267-36.267h762.453c20.053 0 36.267 16.213 36.267 36.267s-16.213 36.267-36.267 36.267z" />
<glyph unicode="&#xe93c;" glyph-name="dashboard" d="M197.547 353.28h78.507c58.453 0 105.813 47.36 105.813 105.813v302.933c0 58.453-47.36 105.813-105.813 105.813h-78.507c-58.453 0-105.813-47.36-105.813-105.813v-302.933c0-58.453 47.36-105.813 105.813-105.813zM164.267 762.027c0 18.347 14.933 33.28 33.28 33.28h78.507c18.347 0 33.28-14.933 33.28-33.28v-302.933c0-18.347-14.933-33.28-33.28-33.28h-78.507c-18.347 0-33.28 14.933-33.28 33.28v302.933zM409.173 303.36h-220.587c-52.907 0-95.573-43.093-95.573-95.573v-84.053c0-52.907 43.093-95.573 95.573-95.573h220.587c52.907 0 95.573 43.093 95.573 95.573v84.053c0 52.907-43.093 95.573-95.573 95.573zM432.213 123.733c0-12.8-10.24-23.040-23.040-23.040h-220.587c-12.8 0-23.040 10.24-23.040 23.040v84.053c0 12.8 10.24 23.040 23.040 23.040h220.587c12.8 0 23.040-10.24 23.040-23.040v-84.053zM820.48 303.36h-147.2c-58.88 0-106.667-47.787-106.667-106.667v-61.867c0-58.88 47.787-106.667 106.667-106.667h147.2c58.88 0 106.667 47.787 106.667 106.667v61.867c0 58.88-47.787 106.667-106.667 106.667zM855.040 134.827c0-18.773-15.36-34.133-34.133-34.133h-147.2c-18.773 0-34.133 15.36-34.133 34.133v61.867c0 18.773 15.36 34.133 34.133 34.133h147.2c18.773 0 34.133-15.36 34.133-34.133v-61.867zM828.587 867.84h-268.8c-57.173 0-103.68-46.507-103.68-103.68v-307.627c0-57.173 46.507-103.68 103.68-103.68h268.8c57.173 0 103.68 46.507 103.68 103.68v307.627c0 57.173-46.507 103.68-103.68 103.68zM859.733 456.533c0-17.067-14.080-31.147-31.147-31.147h-268.8c-17.067 0-31.147 14.080-31.147 31.147v307.627c0 17.067 14.080 31.147 31.147 31.147h268.8c17.067 0 31.147-14.080 31.147-31.147v-307.627z" />
<glyph unicode="&#xe93d;" glyph-name="denunciar" d="M512 354.987c-20.053 0-36.267 16.213-36.267 36.267v231.68c0 20.053 16.213 36.267 36.267 36.267s36.267-16.213 36.267-36.267v-231.68c0-20.053-16.213-36.267-36.267-36.267zM550.4 275.2c0-21.208-17.192-38.4-38.4-38.4s-38.4 17.192-38.4 38.4c0 21.208 17.192 38.4 38.4 38.4s38.4-17.192 38.4-38.4zM619.093 27.733h-214.187c-43.093 0-83.627 16.64-114.347 47.36l-151.467 151.467c-30.72 30.293-47.36 71.253-47.36 114.347v214.187c0 43.093 16.64 83.627 47.36 114.347l151.467 151.467c30.293 30.293 71.68 47.36 114.347 47.36h214.187c42.667 0 84.053-17.067 114.347-47.36l151.467-151.467c30.72-30.72 47.36-71.253 47.36-114.347v-214.187c0-43.093-16.64-84.053-47.36-114.347l-151.467-151.467c-30.72-30.72-71.253-47.36-114.347-47.36zM404.907 795.733c-23.467 0-46.507-9.387-63.147-26.027l-151.467-151.467c-16.64-17.067-26.027-39.253-26.027-63.147v-214.187c0-23.893 9.387-46.080 26.027-63.147l151.467-151.467c17.067-16.64 39.253-26.027 63.147-26.027h214.187c23.893 0 46.080 9.387 63.147 26.027l151.467 151.467c16.64 16.64 26.027 39.253 26.027 63.147v214.187c0 23.893-9.387 46.080-26.027 63.147l-151.467 151.467c-16.64 16.64-39.68 26.027-63.147 26.027h-214.187z" />
<glyph unicode="&#xe93e;" glyph-name="descargar" d="M897.707 127.147h-771.413c-20.053 0-36.267-16.213-36.267-36.267s16.213-36.267 36.267-36.267h771.413c20.053 0 36.267 16.213 36.267 36.267s-16.213 36.267-36.267 36.267zM488.533 239.36c7.253-7.253 16.213-10.667 25.6-10.667s18.773 3.413 25.6 10.667l231.253 232.107c14.080 14.080 14.080 37.12 0 51.2s-37.12 14.080-51.2 0l-169.813-170.24v452.693c0 20.053-16.213 36.267-36.267 36.267s-36.267-16.213-36.267-36.267v-452.267l-168.96 168.107c-14.080 14.080-37.12 14.080-51.2 0s-14.080-37.12 0-51.2l231.253-229.973z" />
<glyph unicode="&#xe93f;" glyph-name="deshacer" d="M762.453 559.36h-539.733l103.68 110.080c13.653 14.507 13.227 37.547-1.28 51.2s-37.547 13.227-51.2-1.28l-171.52-181.333c-6.827-6.827-10.24-16.213-9.813-26.027 0-9.813 4.267-18.773 11.52-25.173l171.093-160.427c6.827-6.4 15.787-9.813 24.747-9.813 9.813 0 19.2 3.84 26.453 11.52 13.653 14.507 12.8 37.547-1.707 51.2l-115.627 108.373h553.387c56.747 0 98.987-50.347 98.987-95.573v-189.44c0-20.053 16.213-36.267 36.267-36.267s36.267 16.213 36.267 36.267v189.44c0 89.6-80.213 168.107-171.52 168.107z" />
<glyph unicode="&#xe940;" glyph-name="deslinkear" d="M926.293 464.64c0 93.867-67.84 170.24-151.467 170.24h-192c-20.053 0-36.267-16.213-36.267-36.267s16.213-36.267 36.267-36.267h192c43.52 0 78.933-43.947 78.933-97.707s-35.413-97.707-78.933-97.707h-134.4s-2.133-0.427-3.413-0.853l-412.587 411.733c-14.080 14.080-37.12 14.080-51.2 0s-14.080-37.12 0-51.2l91.733-91.733h-27.307c-83.627 0-151.467-76.373-151.467-170.24s67.84-170.24 151.467-170.24h192c20.053 0 36.267 16.213 36.267 36.267s-16.213 36.267-36.267 36.267h-192c-43.52 0-78.933 43.947-78.933 97.707s35.413 97.707 78.933 97.707h99.84l61.867-61.867h-84.907c-20.053 0-36.267-16.213-36.267-36.267s16.213-36.267 36.267-36.267h153.173s2.133 0.427 3.413 0.853l311.040-311.040c7.253-7.253 16.213-10.667 25.6-10.667s18.773 3.413 25.6 10.667c14.080 14.080 14.080 37.12 0 51.2l-124.587 124.587h66.133c83.627 0 151.467 76.373 151.467 170.24z" />
<glyph unicode="&#xe941;" glyph-name="destaque" d="M924.16 503.893c-27.733 33.28-68.267 52.053-111.36 52.053h-182.187l6.4 218.453c1.28 42.24-25.173 78.080-65.707 90.027-40.107 11.52-81.92-4.693-103.253-41.387l-189.44-321.707h-69.12c-78.507 0-142.507-64-142.507-142.507v-188.587c0-78.507 64-142.507 142.507-142.507h87.040s0 0 0 0h455.253c63.573 0 119.467 42.667 135.68 104.533l67.413 253.013c7.68 42.24-3.413 85.76-31.147 119.040zM139.093 170.24v188.587c0 38.827 31.573 69.973 69.973 69.973h50.773v-328.96h-50.773c-38.827 0-69.973 31.573-69.973 69.973zM884.053 401.067l-66.987-250.453c-8.107-29.867-34.987-50.347-65.707-50.347h-418.987v349.867l197.973 336.213c6.4 11.093 16.64 9.387 20.907 8.107s13.653-5.12 13.227-17.92l-7.253-256c0-9.813 3.413-19.2 10.24-26.453s16.213-11.093 26.027-11.093h219.733c21.333 0 41.813-9.387 55.467-26.027s19.2-37.973 16.213-56.32z" />
<glyph unicode="&#xe942;" glyph-name="difusion" d="M201.387 423.68h-58.88c-20.053 0-36.267-16.213-36.267-36.267s16.213-36.267 36.267-36.267h58.88c116.48 0 211.2-94.72 211.2-211.2v-61.013c0-20.053 16.213-36.267 36.267-36.267s36.267 16.213 36.267 36.267v61.013c0 156.587-127.147 283.733-283.733 283.733zM194.987 637.44h-58.88c-20.053 0-36.267-16.213-36.267-36.267s16.213-36.267 36.267-36.267h58.88c239.787 0 434.347-194.987 434.347-434.347v-60.587c0-20.053 16.213-36.267 36.267-36.267s36.267 16.213 36.267 36.267v60.587c0 279.467-227.413 506.88-506.88 506.88zM189.013 867.413h-58.027c-20.053 0-36.267-16.64-36.267-36.693s16.213-36.267 36.267-36.267h58.027c369.493 0 670.293-300.373 670.293-670.293v-59.733c0-20.053 16.213-36.267 36.267-36.267s36.267 16.213 36.267 36.267v59.733c0.427 410.027-332.8 743.253-742.827 743.253zM200.96 246.613c-60.16 0-109.227-49.067-109.227-109.227s49.067-109.227 109.227-109.227 109.227 49.067 109.227 109.227-49.067 109.227-109.227 109.227zM200.96 101.12c-20.053 0-36.693 16.213-36.693 36.693s16.213 36.693 36.693 36.693 36.693-16.213 36.693-36.693-16.213-36.693-36.693-36.693z" />
<glyph unicode="&#xe943;" glyph-name="disponibilidad" d="M779.947 791.467h-39.68v40.533c0 20.053-16.213 36.267-36.267 36.267s-36.267-16.213-36.267-36.267v-40.533h-311.467v40.533c0 20.053-16.213 36.267-36.267 36.267s-36.267-16.213-36.267-36.267v-40.533h-39.68c-83.627 0-151.467-67.84-151.467-151.467v-460.8c0-83.627 67.84-151.467 151.467-151.467h535.893c83.627 0 151.467 67.84 151.467 151.467v460.8c0 83.627-67.84 151.467-151.467 151.467zM858.88 179.2c0-43.52-35.413-78.933-78.933-78.933h-535.893c-43.52 0-78.933 35.413-78.933 78.933v460.8c0 43.52 35.413 78.933 78.933 78.933h535.893c43.52 0 78.933-35.413 78.933-78.933v-460.8zM281.6 584.533h460.8c20.053 0 36.267 16.213 36.267 36.267s-16.213 36.267-36.267 36.267h-460.8c-20.053 0-36.267-16.213-36.267-36.267s16.213-36.267 36.267-36.267zM281.6 486.4c-21.333 0-38.4-17.067-38.4-38.4s17.067-38.4 38.4-38.4 38.4 17.067 38.4 38.4-17.067 38.4-38.4 38.4zM435.2 486.4c-21.333 0-38.4-17.067-38.4-38.4s17.067-38.4 38.4-38.4 38.4 17.067 38.4 38.4-17.067 38.4-38.4 38.4zM435.2 332.8c-21.333 0-38.4-17.067-38.4-38.4s17.067-38.4 38.4-38.4 38.4 17.067 38.4 38.4-17.067 38.4-38.4 38.4zM742.4 332.8c-21.333 0-38.4-17.067-38.4-38.4s17.067-38.4 38.4-38.4 38.4 17.067 38.4 38.4-17.067 38.4-38.4 38.4z" />
<glyph unicode="&#xe944;" glyph-name="disposicion" d="M890.88 100.267h-76.8v584.533c0 101.12-91.733 183.467-204.373 183.467h-194.56c-112.64 0-204.373-82.347-204.373-183.467v-578.987s0.853-3.84 1.28-5.547h-78.080c-20.053 0-36.267-16.213-36.267-36.267s16.213-36.267 36.267-36.267h757.333c20.053 0 36.267 16.213 36.267 36.267s-16.213 36.267-36.267 36.267zM282.88 597.76c47.787 3.413 132.267 16.213 192.853 62.293v-254.72h-192.853v192.427zM548.267 659.627c61.013-45.653 145.067-58.453 192.853-61.867v-192.427h-192.853v254.293zM741.12 332.8v-232.533h-192.853v232.533h192.853zM741.12 684.8v-14.080c-43.947 3.413-119.467 15.787-162.133 57.6-18.773 18.347-28.587 40.533-30.293 67.413h60.587c72.96 0 132.267-49.92 132.267-110.933zM414.72 795.733h59.733c-2.133-26.88-11.947-49.493-30.293-67.413-42.667-41.813-117.333-54.187-161.28-57.6v14.080c0 61.013 59.307 110.933 132.267 110.933zM282.88 105.813v226.987h192.853v-232.533h-194.133s1.28 3.84 1.28 5.547z" />
<glyph unicode="&#xe945;" glyph-name="doblecheck" d="M315.307 201.813c-9.813 0-19.2 3.84-26.453 11.52l-187.307 198.4c-13.653 14.507-13.227 37.547 1.28 51.2s37.547 13.227 51.2-1.28l187.307-198.4c13.653-14.507 13.227-37.547-1.28-51.2-6.827-6.827-15.787-9.813-24.747-9.813zM502.187 419.84c-9.387 0-18.773 3.413-25.6 10.667-14.080 14.080-14.080 37.12 0 51.2l199.68 199.253c14.080 14.080 37.12 14.080 51.2 0s14.080-37.12 0-51.2l-199.253-199.253c-7.253-7.253-16.213-10.667-25.6-10.667zM503.467 216.747c-9.387 0-18.773 3.413-25.6 10.667l-159.147 159.147c-14.080 14.080-14.080 37.12 0 51.2s37.12 14.080 51.2 0l133.547-133.547 366.507 366.507c14.080 14.080 37.12 14.080 51.2 0s14.080-37.12 0-51.2l-392.107-392.533c-7.253-7.253-16.213-10.667-25.6-10.667z" />
<glyph unicode="&#xe946;" glyph-name="dormitorios" d="M859.307 476.16v108.8c0 62.293-50.773 113.067-113.067 113.067h-465.92c-62.293 0-113.067-50.773-113.067-113.067v-108.373c-43.947-14.507-75.093-51.2-75.093-94.293v-148.053c0-20.053 16.213-36.267 36.267-36.267s36.267 16.213 36.267 36.267v5.12h695.467v-5.12c0-20.053 16.213-36.267 36.267-36.267s36.267 16.213 36.267 36.267v148.053c0 42.24-30.293 78.507-72.96 93.867zM663.893 484.267h-299.947v15.787c0 11.52 6.4 18.773 9.813 18.773h280.32c3.413 0 9.813-7.253 9.813-18.773v-15.787zM239.36 584.533c0 22.613 18.347 40.96 40.96 40.96h465.92c22.613 0 40.96-18.347 40.96-40.96v-100.267h-50.347v15.787c0 50.347-37.12 91.307-82.347 91.307h-280.32c-45.653 0-82.347-40.96-82.347-91.307v-15.787h-52.053v100.267zM164.267 311.893v70.4c0 13.653 18.347 29.013 44.373 29.013h607.147c26.027 0 44.373-15.36 44.373-29.013v-70.4h-695.893z" />
<glyph unicode="&#xe947;" glyph-name="dropdown" d="M921.6 666.453c-14.080 14.080-37.12 14.080-51.2 0l-358.4-359.68-358.4 356.267c-14.080 14.080-37.12 14.080-51.2 0s-14.080-37.12 0-51.2l384-381.867c7.253-7.253 16.213-10.667 25.6-10.667s18.773 3.413 25.6 10.667l384 385.707c14.080 14.080 14.080 37.12 0 51.2z" />
<glyph unicode="&#xe948;" glyph-name="dudas" d="M512 27.733c-231.68 0-420.267 188.587-420.267 420.267s188.587 420.267 420.267 420.267 420.267-188.587 420.267-420.267-188.587-420.267-420.267-420.267zM512 795.733c-191.573 0-347.733-155.733-347.733-347.733s156.16-347.733 347.733-347.733 347.733 156.16 347.733 347.733-156.16 347.733-347.733 347.733zM514.133 347.733s-2.987 0-4.693 0c-20.053 2.56-34.133 20.48-31.573 40.533 8.96 71.253 56.747 109.227 62.293 113.067l0.853 1.28c19.2 17.92 31.147 29.867 31.147 52.48 0 33.28-26.88 60.16-60.16 60.16s-60.16-26.88-60.16-60.16c0-20.053-16.213-36.267-36.267-36.267s-36.267 16.213-36.267 36.267c0 72.96 59.307 132.693 132.693 132.693s132.693-59.307 132.693-132.693c0-55.893-34.133-87.040-54.613-105.813l-3.413-2.987c-3.84-2.987-31.573-25.6-36.693-66.56-2.133-18.347-17.92-31.573-35.84-31.573zM549.547 265.813c0-21.208-17.192-38.4-38.4-38.4s-38.4 17.192-38.4 38.4c0 21.208 17.192 38.4 38.4 38.4s38.4-17.192 38.4-38.4z" />
<glyph unicode="&#xe949;" glyph-name="duplicados" d="M930.987 219.733l-43.093 141.653c-19.2 63.147-86.613 110.080-171.947 125.013 42.24 38.4 68.267 93.44 68.267 152.747 0 55.040-21.333 107.093-60.587 146.347s-90.88 60.587-146.347 60.587c-85.76 0-162.133-54.187-192.427-133.12-83.2-26.88-144.213-104.107-144.213-196.267 0-60.587 26.88-114.773 68.693-152.747-85.333-14.933-152.747-61.867-171.947-125.013l-43.52-142.080c-3.413-11.093-1.28-23.040 5.547-32 6.827-9.387 17.493-14.507 29.013-14.507h638.293c11.52 0.427 22.187 5.973 29.013 14.933 6.827 9.387 8.96 21.333 5.547 32l-23.040 75.093h118.187c11.52 0 22.187 5.973 29.013 14.933 6.827 9.387 8.96 21.333 5.547 32zM577.28 773.547c35.84 0 69.547-14.080 95.147-39.253 25.173-25.6 39.253-59.307 39.253-95.147 0-44.8-22.613-86.187-58.88-110.507-2.987 50.773-23.040 98.56-59.307 134.4-33.28 33.28-75.947 52.907-122.027 58.453 25.173 32 63.573 52.053 105.813 52.053zM447.147 651.093c35.84 0 69.547-14.080 95.147-39.253 25.173-25.173 39.253-58.88 39.253-95.147 0-74.24-60.16-134.4-134.4-134.4s-134.4 60.16-134.4 134.4 60.16 134.4 134.4 134.4zM177.067 122.453l29.013 95.573c13.653 45.227 82.773 79.36 160 79.36h162.133c77.653 0 146.347-34.133 160-78.933l29.013-95.147h-540.16zM755.2 244.907c-21.333 60.16-87.040 104.96-169.387 119.040 17.493 15.787 32 34.56 43.093 55.467h29.867c77.653 0 146.347-34.133 160-78.933l29.013-95.147h-92.16z" />
<glyph unicode="&#xe94a;" glyph-name="editar" d="M892.587 763.307l-71.253 71.253c-60.587 60.16-165.973 53.333-235.52-16.213l-424.533-424.533c-11.52-11.52-19.627-26.453-22.613-41.813l-46.933-237.653c-4.693-23.040 2.133-46.507 17.92-62.293 12.373-12.373 29.867-19.627 48.213-19.627 4.693 0 9.387 0.427 14.080 1.28l237.653 46.933s0 0 0 0c15.787 2.987 30.293 11.093 41.813 22.613l424.533 424.533c69.547 69.547 76.8 174.933 16.213 235.52zM400.64 154.453s-3.413-2.56-4.693-2.56l-231.68-45.653 45.653 231.68s1.28 2.987 2.56 4.693l340.48 340.48 187.733-187.733-340.48-340.48zM824.747 578.987l-32.853-32.853-187.733 187.733 32.853 32.853c23.893 23.893 53.76 36.267 81.067 36.267 19.627 0 38.4-6.4 51.627-20.053l71.253-71.253c32-32 24.747-91.733-16.213-133.12z" />
<glyph unicode="&#xe94b;" glyph-name="editarfichainfo" d="M303.36 436.48h209.067c20.053 0 36.267 16.213 36.267 36.267s-16.213 36.267-36.267 36.267h-209.067c-20.053 0-36.267-16.213-36.267-36.267s16.213-36.267 36.267-36.267zM303.36 554.667h119.467c20.053 0 36.267 16.213 36.267 36.267s-16.213 36.267-36.267 36.267h-119.467c-20.053 0-36.267-16.213-36.267-36.267s16.213-36.267 36.267-36.267zM875.947 446.72l-36.693 42.24c-16.64 19.2-40.533 29.867-65.707 31.573v86.187c0 144.64-117.76 261.973-261.973 261.973h-242.347c-79.787 0-144.213-64.853-144.213-144.213v-504.32c0-79.787 64.853-144.213 144.213-144.213h87.893c0.853-11.52 4.693-22.187 12.373-30.72 10.24-11.947 25.173-18.347 40.96-18.347 2.133 0 4.693 0 7.253 0l133.12 16.64c11.947 1.28 23.467 6.827 32.853 14.507l272.64 236.373c47.787 41.387 56.747 109.653 20.053 152.32zM821.333 399.36c10.667-11.947 4.693-34.987-12.373-49.92l-8.96-7.68-75.093 86.613 8.96 7.68c17.067 14.933 40.533 17.493 51.2 5.12l36.693-42.24zM695.467 652.8h-65.707c-19.627 0-35.413 15.787-35.413 35.413v88.747c49.92-24.32 87.467-69.547 101.547-124.16zM197.547 220.16v504.747c0 39.68 32.427 71.68 71.68 71.68h242.347c3.413 0 6.4-0.853 9.387-0.853v-107.093c0-59.733 48.64-107.947 107.947-107.947h72.107v-78.507c-5.12-3.413-10.667-6.827-15.36-11.093l-116.053-100.693s0 0 0 0h-266.24c-20.053 0-36.267-16.213-36.267-36.267s16.213-36.267 36.267-36.267h183.040l-72.96-63.147c-9.387-8.107-16.213-18.773-19.2-30.293l-20.907-75.947h-104.107c-39.68 0-71.68 32.427-71.68 71.68zM538.453 115.2l-102.4-12.8 26.88 99.413 206.507 178.773 75.093-86.613-206.507-178.773z" />
<glyph unicode="&#xe94c;" glyph-name="editarpropiedad" d="M913.92 555.947l-49.067 45.227c-46.507 43.093-123.733 34.987-172.8-17.493l-178.773-193.707c-25.173 22.613-57.6 35.413-93.013 35.413-76.373 0-138.667-61.44-138.667-137.387v-103.253h-66.987c-36.693 0-66.987 32.427-66.987 72.533v277.333c0 20.907 8.533 40.96 23.040 54.613l206.080 193.28c25.173 23.467 62.293 23.893 87.467 0l149.76-140.373c14.507-13.653 37.547-12.8 51.2 1.707s12.8 37.547-1.707 51.2l-149.76 140.373c-53.333 49.92-133.547 49.92-186.453 0l-205.227-193.28c-29.44-27.307-46.080-66.56-46.080-107.52v-277.333c0-79.787 62.293-145.067 139.52-145.067h168.533l-2.133-14.080c-2.987-19.627 3.413-38.827 17.493-51.627 10.667-9.813 24.32-14.933 38.827-14.933 4.693 0 9.387 0.427 14.080 1.707l155.733 37.12s0 0 0 0c12.373 2.987 23.893 9.813 33.28 19.627l269.227 291.84c22.613 24.747 36.267 55.467 37.547 87.040 1.707 33.707-10.667 64.853-33.707 86.187zM791.893 556.8c9.387 0 17.493-2.987 23.893-8.533l49.067-45.227c9.813-9.387 11.093-22.613 10.667-29.44-0.853-14.507-7.253-29.44-18.347-41.387l-12.373-13.653-111.36 102.827 12.373 13.653c13.227 14.507 30.72 22.187 46.080 22.187zM354.56 185.173v103.253c0 35.84 29.867 64.853 66.133 64.853 16.64 0 31.573-6.4 43.52-16.64l-41.387-44.8c-8.96-9.813-14.933-21.76-17.067-34.987l-11.093-71.68h-40.533zM588.8 141.227l-132.267-31.573 20.053 133.12 58.027 63.147c3.413 2.56 5.973 5.547 8.107 8.96l141.227 153.173 111.36-102.827-206.507-224z" />
<glyph unicode="&#xe94d;" glyph-name="editarsitio" d="M896 727.893c-2.133 1.707-4.693 2.56-7.253 3.84 4.693 27.733-2.133 55.893-22.187 75.947l-31.147 31.147c-15.36 15.36-36.693 23.893-59.733 24.32v0c-26.453 0-52.907-11.52-72.533-31.147l-186.88-186.88c-8.107-8.107-13.227-17.92-15.787-29.013l-20.48-104.533c-3.413-16.64 1.707-33.707 13.653-45.653 9.387-9.387 22.187-14.507 35.413-14.507 3.413 0 6.827 0 10.24 0.853l104.533 20.48s0 0 0 0c10.667 2.133 20.907 7.68 28.587 15.36l180.053 180.053c3.413-4.267 5.973-9.387 5.973-14.933v-277.333h-697.173v276.907c0 13.227 10.667 23.893 23.893 23.893h238.933c20.053 0 36.267 16.213 36.267 36.267s-16.213 36.267-36.267 36.267h-238.933c-52.907 0-96-43.093-96-96.427v-380.587c0-52.907 43.093-96.427 96-96.427h290.987v-71.253h-50.773c-20.053 0-36.267-16.213-36.267-36.267s16.213-36.267 36.267-36.267h174.080c20.053 0 36.267 16.213 36.267 36.267s-16.213 36.267-36.267 36.267h-50.773v71.253h286.72c52.907 0 96.427 43.093 96.427 96.427v381.44c0 29.013-12.8 55.893-35.413 74.24zM775.68 790.613c2.56 0 5.973-0.427 8.533-2.987l31.573-31.147c5.12-5.12 3.413-19.627-7.253-29.867v0s-54.187 54.187-54.187 54.187v0c6.4 6.4 14.080 9.813 21.333 9.813zM624.64 543.147l-67.413-13.227 13.227 67.413 132.267 132.267 54.187-54.187-132.267-132.267zM834.987 249.173h-649.813c-13.227 0-23.893 10.667-23.893 23.893v31.147h697.173v-31.147c0-13.227-10.667-23.893-23.893-23.893z" />
<glyph unicode="&#xe94e;" glyph-name="electricidad" d="M471.893 27.733c-2.56 0-5.12 0-7.68 0.427-12.373 2.133-23.893 8.96-31.573 19.2-6.827 9.387-10.24 21.333-9.387 32.853l5.12 301.227h-166.4c-10.667 0-21.76 3.84-30.293 10.667-20.907 17.067-24.32 47.36-7.68 68.267l300.373 383.573c11.947 20.48 37.547 29.867 60.16 20.48 22.187-8.96 34.133-32.427 29.013-55.040l-10.24-237.227h158.293c8.96 0 17.92-2.56 25.6-7.253 10.667-6.827 18.347-17.493 21.333-30.293s0.853-25.6-6.4-36.693l-290.133-448c-9.813-14.080-24.747-21.76-40.533-21.76zM501.76 401.92l-4.267-241.92 219.733 339.627h-139.093c-27.307-0.427-48.213 21.333-48.64 47.787 0 1.28 0 2.987 0 4.693l8.107 192-226.56-289.707h141.653c13.653 0 25.6-5.547 34.56-14.933s13.653-21.76 13.653-34.56c0-0.853 0-1.707 0-2.987zM281.6 416v0s0 0 0 0zM578.133 572.16v0h0.427zM555.093 824.32v0 0z" />
<glyph unicode="&#xe94f;" glyph-name="eliminar" d="M871.68 717.653h-83.2l-92.587 113.067c-18.347 22.187-45.227 35.413-74.24 35.413h-221.013c-28.16 0-54.613-12.373-72.533-33.28l-98.987-115.2h-77.227c-20.053 0-36.267-16.213-36.267-36.267s16.213-36.267 36.267-36.267h5.547l67.413-504.32s0.853-3.84 1.28-5.547c18.773-61.867 77.653-105.387 143.787-105.387h286.293c66.56 0 126.293 43.947 144.213 106.24 0.427 1.707 0.853 3.413 1.28 5.547l66.56 503.467h2.987c20.053 0 36.267 16.213 36.267 36.267s-16.213 36.267-36.267 36.267zM383.147 785.493c4.267 5.12 10.667 8.107 17.493 8.107h221.013c7.253 0 13.653-2.987 17.92-8.533l55.040-67.413h-369.493l58.453 67.84zM730.88 154.027c-10.24-30.72-40.107-51.627-73.813-51.627h-286.293c-33.707 0-63.573 20.907-73.813 51.2l-65.707 491.52h564.907l-64.853-491.093z" />
<glyph unicode="&#xe950;" glyph-name="email" d="M780.8 791.467h-537.173c-83.627 0-151.893-71.68-151.893-160v-366.507c0-88.32 67.84-160 151.893-160h537.173c83.627 0 151.467 71.68 151.467 160v366.507c0 88.32-67.84 160-151.467 160zM860.16 264.533c0-48.213-35.413-87.467-79.36-87.467h-537.173c-43.52 0-79.36 39.253-79.36 87.467v361.813l262.827-196.267c25.6-19.627 55.040-29.44 84.907-29.44s59.733 9.813 85.333 29.44l167.253 129.707c15.787 12.373 18.773 34.987 6.4 50.773s-34.987 18.773-50.773 6.4l-167.253-129.707c-24.32-18.773-57.173-18.773-81.92 0l-279.467 208.64c14.080 13.653 32 22.187 52.053 22.187h537.173c43.52 0 79.36-39.253 79.36-87.467v-366.507z" />
<glyph unicode="&#xe951;" glyph-name="emailabierto" d="M919.893 565.76c-8.533 15.787-31.147 34.56-47.36 46.080l-272.64 227.413c-50.773 39.253-119.040 38.827-169.813 0l-288.427-215.040c-17.92-14.507-40.533-35.413-47.787-53.76-1.707-3.84-6.4-15.787-5.12-53.333v-329.387c0-88.32 68.267-160 151.893-160h537.173c83.627 0 151.893 71.68 151.893 160v319.573c0 18.347-1.707 43.52-9.813 58.88zM474.027 781.653c24.32 18.773 57.173 18.773 80.64 0.853l186.027-155.307v-127.147c0-32-18.347-54.613-34.56-54.613h-398.933c-16.213 0-34.56 22.613-34.56 54.613v130.987l201.387 150.187zM857.173 187.733c0-48.213-35.413-87.467-79.36-87.467h-537.173c-43.52 0-79.36 39.253-79.36 87.467v330.24c0 8.96 0 20.053 0.427 25.6 4.693 5.547 15.36 16.213 24.32 23.467l14.080 10.24v-77.227c0-69.973 48.213-127.147 107.093-127.147h398.933c59.307 0 107.093 57.173 107.093 127.147v66.56l14.507-11.947c10.667-7.68 22.613-17.92 27.307-23.040 0.853-5.12 1.707-16.213 2.133-24.747v-319.573z" />
<glyph unicode="&#xe952;" glyph-name="emprendimientos" d="M896.427 345.173h-50.773v183.467h35.84c17.067 0 32 11.947 35.413 29.013 3.413 16.64-5.12 33.707-20.907 40.533l-502.613 218.88v15.787c0 20.053-16.213 36.267-36.267 36.267s-36.267-16.213-36.267-36.267v-24.747l-218.88-218.027c-10.24-10.24-13.653-26.027-8.107-39.68s18.773-22.613 33.707-22.613h193.28v-428.8h-113.493c-20.053 0-36.267-16.213-36.267-36.267s16.213-36.267 36.267-36.267h279.467c20.053 0 36.267 16.213 36.267 36.267s-16.213 36.267-36.267 36.267h-93.44v428.8h379.733v-183.467h-50.773c-20.053 0-36.267-16.213-36.267-36.267v-129.707c0-20.053 16.213-36.267 36.267-36.267h173.653c20.053 0 36.267 16.213 36.267 36.267v129.707c0 20.053-16.213 36.267-36.267 36.267zM215.467 600.747l105.387 104.96v-104.96h-105.387zM393.387 600.747v136.96l314.027-136.96h-314.027zM860.16 215.467h-101.12v57.173h101.12v-57.173z" />
<glyph unicode="&#xe953;" glyph-name="empresa" d="M734.293 875.52h-295.68c-94.72 0-171.947-77.227-171.947-171.947v-135.253l-89.6-64c-45.227-32.427-72.533-84.907-72.533-140.8v-294.4c0-20.053 16.213-36.267 36.267-36.267h729.173c20.053 0 36.267 16.213 36.267 36.267v634.453c0 94.72-77.227 171.947-171.947 171.947zM176.64 363.52c0 32.427 15.787 62.72 42.24 81.92l47.36 33.707v-373.76h-89.6v258.133zM520.96 105.387v129.28c0 23.040 18.773 41.387 41.387 41.387h46.933c23.040 0 41.387-18.773 41.387-41.387v-129.28h-130.133zM833.707 105.387h-109.653v129.28c0 62.72-51.2 113.92-113.92 113.92h-46.933c-62.72 0-113.92-51.2-113.92-113.92v-129.28h-109.653v598.187c0 54.613 44.8 99.413 99.413 99.413h295.68c54.613 0 99.413-44.8 99.413-99.413v-597.76zM652.8 679.68h34.133c12.96 0 23.467-10.506 23.467-23.467v-34.133c0-12.96-10.506-23.467-23.467-23.467h-34.133c-12.96 0-23.467 10.506-23.467 23.467v34.133c0 12.96 10.506 23.467 23.467 23.467zM491.093 679.68h34.133c12.96 0 23.467-10.506 23.467-23.467v-34.133c0-12.96-10.506-23.467-23.467-23.467h-34.133c-12.96 0-23.467 10.506-23.467 23.467v34.133c0 12.96 10.506 23.467 23.467 23.467zM652.8 517.973h34.133c12.96 0 23.467-10.506 23.467-23.467v-34.133c0-12.96-10.506-23.467-23.467-23.467h-34.133c-12.96 0-23.467 10.506-23.467 23.467v34.133c0 12.96 10.506 23.467 23.467 23.467zM491.093 517.973h34.133c12.96 0 23.467-10.506 23.467-23.467v-34.133c0-12.96-10.506-23.467-23.467-23.467h-34.133c-12.96 0-23.467 10.506-23.467 23.467v34.133c0 12.96 10.506 23.467 23.467 23.467z" />
<glyph unicode="&#xe954;" glyph-name="enviar" d="M911.36 855.467c-18.773 17.493-45.227 23.040-69.12 14.080v0l-706.133-254.72c-27.307-9.813-44.8-34.987-44.373-64s17.92-53.76 46.507-63.573l329.387-101.973 126.293-319.573c10.24-26.453 34.56-43.093 62.72-43.093 0.853 0 2.133 0 2.987 0 29.44 1.28 53.76 20.48 61.867 48.64l208.213 716.8c7.253 24.747 0 50.773-18.773 67.84zM174.933 551.68l606.72 219.307-293.973-315.733-312.747 96.853zM656.213 105.387l-117.76 298.24 296.96 318.72-179.2-616.96z" />
<glyph unicode="&#xe955;" glyph-name="error" d="M563.627 449.28l106.24 108.8c14.080 14.507 13.653 37.12-0.427 51.2-14.507 14.080-37.12 13.653-51.2-0.427l-106.24-108.8-108.8 106.24c-14.507 14.080-37.12 13.653-51.2-0.427-14.080-14.507-13.653-37.12 0.427-51.2l108.8-106.24-106.24-108.8c-14.080-14.507-13.653-37.12 0.427-51.2 7.253-6.827 16.213-10.24 25.173-10.24s18.773 3.413 26.027 10.667l106.24 108.8 108.373-105.813c7.253-6.827 16.213-10.24 25.173-10.24s18.773 3.413 26.027 10.667c14.080 14.507 13.653 37.12-0.427 51.2l-108.373 105.813zM512 868.267c-231.68 0-420.267-188.587-420.267-420.267s188.587-420.267 420.267-420.267 420.267 188.587 420.267 420.267-188.587 420.267-420.267 420.267zM512 100.267c-191.573 0-347.733 156.16-347.733 347.733s156.16 347.733 347.733 347.733 347.733-156.16 347.733-347.733-156.16-347.733-347.733-347.733z" />
<glyph unicode="&#xe956;" glyph-name="estadisticas" d="M818.773 27.307h-613.547c-20.053 0-36.267 16.213-36.267 36.267s16.213 36.267 36.267 36.267h613.547c20.053 0 36.267-16.213 36.267-36.267s-16.213-36.267-36.267-36.267zM216.32 165.12c-20.053 0-36.267 16.213-36.267 36.267v157.867c0 20.053 16.213 36.267 36.267 36.267s36.267-16.213 36.267-36.267v-157.867c0-20.053-16.213-36.267-36.267-36.267zM413.44 165.12c-20.053 0-36.267 16.213-36.267 36.267v315.307c0 20.053 16.213 36.267 36.267 36.267s36.267-16.213 36.267-36.267v-315.307c0-20.053-16.213-36.267-36.267-36.267zM610.56 165.12c-20.053 0-36.267 16.213-36.267 36.267v465.493c0 20.053 16.213 36.267 36.267 36.267s36.267-16.213 36.267-36.267v-465.493c0-20.053-16.213-36.267-36.267-36.267zM807.68 165.12c-20.053 0-36.267 16.213-36.267 36.267v631.040c0 20.053 16.213 36.267 36.267 36.267s36.267-16.213 36.267-36.267v-631.040c0-20.053-16.213-36.267-36.267-36.267z" />
<glyph unicode="&#xe957;" glyph-name="etiquetas" d="M536.32 660.053c-51.627-51.627-51.627-136.107 0-187.733 26.027-26.027 59.733-38.827 93.867-38.827s67.84 12.8 93.867 38.827v0c51.627 51.627 51.627 136.107 0 187.733s-136.107 51.627-187.733 0zM672.853 523.52c-23.467-23.467-61.44-23.467-84.907 0s-23.467 61.44 0 84.907c11.947 11.52 27.307 17.493 42.667 17.493s30.72-5.973 42.667-17.493c23.467-23.467 23.467-61.44 0-84.907zM913.067 740.267c-4.693 58.453-49.92 104.107-108.373 108.373l-267.947 20.48c-34.133 2.56-67.84-9.813-92.16-34.133l-319.573-319.573c-46.080-46.080-46.080-120.747 0-166.827l288.427-288.427c22.187-22.187 51.627-34.56 83.2-34.56s61.013 12.373 83.2 34.56l319.573 319.573c24.32 24.32 36.693 58.027 34.133 92.587l-20.48 267.947zM848.213 431.36v0s-319.573-319.573-319.573-319.573c-17.067-17.067-46.933-17.067-64 0l-288.427 288.427c-17.493 17.493-17.493 46.507 0 64l319.573 319.573c8.533 8.533 20.053 13.227 32 13.227 1.28 0 2.133 0 3.413 0l267.947-20.48c22.613-1.707 40.107-19.2 41.813-41.813l20.48-267.947c0.853-13.227-3.84-26.027-13.227-35.413z" />
<glyph unicode="&#xe958;" glyph-name="eventodesconocido" d="M779.947 791.467h-39.68v40.533c0 20.053-16.213 36.267-36.267 36.267s-36.267-16.213-36.267-36.267v-40.533h-311.467v40.533c0 20.053-16.213 36.267-36.267 36.267s-36.267-16.213-36.267-36.267v-40.533h-39.68c-83.627 0-151.467-67.84-151.467-151.467v-460.8c0-83.627 67.84-151.467 151.467-151.467h535.893c83.627 0 151.467 67.84 151.467 151.467v460.8c0 83.627-67.84 151.467-151.467 151.467zM858.88 179.2c0-43.52-35.413-78.933-78.933-78.933h-535.893c-43.52 0-78.933 35.413-78.933 78.933v460.8c0 43.52 35.413 78.933 78.933 78.933h535.893c43.52 0 78.933-35.413 78.933-78.933v-460.8zM742.4 625.067h-460.8c-20.053 0-36.267-16.213-36.267-36.267s16.213-36.267 36.267-36.267h460.8c20.053 0 36.267 16.213 36.267 36.267s-16.213 36.267-36.267 36.267zM519.68 512c-56.32 0-101.973-45.653-101.973-101.973 0-20.053 16.213-36.267 36.267-36.267s36.267 16.213 36.267 36.267c0 16.213 13.227 29.44 29.44 29.44s29.44-13.227 29.44-29.44c0-10.24-4.693-15.787-17.493-27.307-4.267-2.987-40.533-32-46.933-85.333-2.56-20.053 11.52-37.973 31.573-40.533 1.707 0 2.987 0 4.693 0 17.92 0 33.707 13.227 35.84 31.573 2.987 23.040 18.347 35.84 18.773 36.267 0.853 0.853 4.267 3.84 5.12 4.693 15.36 14.080 40.96 37.547 40.96 81.067 0 56.32-45.653 101.973-101.973 101.973zM518.827 241.493c-17.493 0-32-14.080-32-32s14.080-32 32-32 32 14.080 32 32-14.080 32-32 32z" />
<glyph unicode="&#xe959;" glyph-name="excel" d="M578.56 868.267h-258.56c-83.627 0-151.467-67.84-151.467-151.467v-537.6c0-83.627 67.84-151.467 151.467-151.467h384c83.627 0 151.467 67.84 151.467 151.467v412.16c0 152.747-124.16 276.907-276.907 276.907zM776.96 637.867h-73.387c-22.187 0-40.107 17.92-40.107 40.107v98.56c56.747-26.027 98.987-76.8 113.493-138.667zM704 100.267h-384c-43.52 0-78.933 35.413-78.933 78.933v537.6c0 43.52 35.413 78.933 78.933 78.933h258.56c4.267 0 8.107-0.853 12.373-1.28v-116.48c0-62.293 50.773-112.64 112.64-112.64h79.36v-386.133c0-43.52-35.413-78.933-78.933-78.933zM599.467 359.253h-65.28l-21.76-41.813-21.76 42.667h-66.133l54.187-91.307-55.893-93.44h66.133l21.76 45.653 23.893-43.093 1.28-1.707h65.707l-56.32 93.44 54.187 89.6z" />
<glyph unicode="&#xe95a;" glyph-name="expand" d="M205.227 795.733h114.773c20.053 0 36.267 16.213 36.267 36.267s-16.213 36.267-36.267 36.267h-203.52c-20.053 0-36.267-16.213-36.267-36.267v-201.813c0-20.053 16.213-36.267 36.267-36.267s36.267 16.213 36.267 36.267v115.627l175.36-173.653c7.253-6.827 16.213-10.667 25.6-10.667s18.773 3.413 25.6 10.667c14.080 14.080 14.080 37.12 0 51.2l-174.080 172.373zM896 868.267h-203.52c-20.053 0-36.267-16.213-36.267-36.267s16.213-36.267 36.267-36.267h114.773l-173.653-171.947c-14.080-14.080-14.507-37.12 0-51.2 7.253-7.253 16.64-10.667 25.6-10.667s18.347 3.413 25.6 10.667l175.36 173.653v-115.627c0-20.053 16.213-36.267 36.267-36.267s36.267 16.213 36.267 36.267v201.387c0 20.053-16.213 36.267-36.267 36.267zM327.68 323.413l-175.36-173.653v115.627c0 20.053-16.213 36.267-36.267 36.267s-36.267-16.213-36.267-36.267v-201.813c0-20.053 16.213-36.267 36.267-36.267h203.52c20.053 0 36.267 16.213 36.267 36.267s-16.213 36.267-36.267 36.267h-114.773l173.653 171.52c14.080 14.080 14.507 37.12 0 51.2-14.080 14.080-37.12 14.507-51.2 0zM896 302.080c-20.053 0-36.267-16.213-36.267-36.267v-115.627l-175.36 173.653c-14.080 14.080-37.12 14.080-51.2 0s-14.080-37.12 0-51.2l173.653-171.52h-114.773c-20.053 0-36.267-16.213-36.267-36.267s16.213-36.267 36.267-36.267h203.52c20.053 0 36.267 16.213 36.267 36.267v201.813c0 20.053-16.213 36.267-36.267 36.267z" />
<glyph unicode="&#xe95b;" glyph-name="expensas" d="M512 868.267c-231.68 0-420.267-188.587-420.267-420.267s188.587-420.267 420.267-420.267 420.267 188.587 420.267 420.267-188.587 420.267-420.267 420.267zM512 100.267c-191.573 0-347.733 156.16-347.733 347.733s156.16 347.733 347.733 347.733 347.733-156.16 347.733-347.733-156.16-347.733-347.733-347.733zM544 474.88v71.253c13.653-5.12 26.88-11.093 37.547-17.067 17.493-9.813 39.68-3.84 49.493 13.653s3.84 39.68-13.227 49.493c-5.973 3.413-36.267 20.053-73.387 30.293v17.92c0 17.493-14.507 32-32 32s-32-14.507-32-32v-10.667c-20.053-1.28-39.253-7.253-56.32-19.627-31.573-23.040-48.213-54.187-46.507-87.467 1.707-32 20.907-62.72 50.347-80.213 16.64-9.387 34.133-16.213 52.053-22.187v-72.533c-17.067 5.973-34.56 15.36-49.067 28.16-14.933 13.227-37.973 11.947-51.2-2.987s-11.947-37.973 2.987-51.2c30.293-26.88 66.987-42.667 97.707-49.92v-15.787c0-17.493 14.507-32 32-32s32 14.507 32 32v11.947c26.027 3.84 49.92 14.507 67.413 30.72 19.627 17.92 29.867 41.813 30.293 68.693 0.853 65.28-51.2 90.88-97.707 107.093zM464.213 504.747c-8.107 4.693-14.080 13.227-14.507 20.907-0.427 10.24 8.96 19.627 17.067 25.173 3.413 2.56 8.107 3.84 13.653 5.12v-58.453c-5.547 2.133-11.093 4.693-15.787 7.253zM561.92 352c-4.267-4.267-10.667-7.253-17.92-9.813v54.613c18.773-8.533 25.6-16.213 25.173-28.587 0-6.827-2.133-11.947-7.253-16.64z" />
<glyph unicode="&#xe95c;" glyph-name="exportar" d="M897.707 113.067h-771.413c-20.053 0-36.267-16.213-36.267-36.267s16.213-36.267 36.267-36.267h771.413c20.053 0 36.267 16.213 36.267 36.267s-16.213 36.267-36.267 36.267zM282.88 550.4c9.387 0 18.773 3.413 25.6 10.667l169.813 170.667v-480.853c0-20.053 16.213-36.267 36.267-36.267s36.267 16.213 36.267 36.267v480.427l168.96-168.107c14.080-14.080 37.12-14.080 51.2 0s14.080 37.12 0 51.2l-231.253 229.973c-14.080 14.080-37.12 14.080-51.2 0l-231.253-232.107c-14.080-14.080-14.080-37.12 0-51.2 7.253-7.253 16.213-10.667 25.6-10.667z" />
<glyph unicode="&#xe95d;" glyph-name="facebook" d="M613.12 832c20.48 0 41.387-1.28 61.867-2.133 13.227-0.427 26.88-2.56 39.253-3.84l-0.853-123.733h-9.813c-13.653 0-27.307 0-40.533 0-10.24 0-20.48 0-30.72-0.427-32.853-1.28-56.747-13.227-58.453-54.187-0.853-29.44-1.707-94.72-1.707-98.133 1.707 0 34.133 0 66.56 0 16.213 0 32.427 0 43.52 0h26.453c-6.827-47.36-12.8-93.013-19.2-139.093h-116.907l-2.56-346.88h-143.787l2.56 347.307h-117.76l0.853 138.24h118.187v10.24c0 27.733 0 55.893 0.853 83.627 0 17.493 1.28 35.413 4.693 52.907 8.107 42.24 27.733 77.653 63.147 103.253 31.147 22.187 66.133 31.573 103.68 32 3.84 0 7.68 0 11.52 0z" />
<glyph unicode="&#xe95e;" glyph-name="facturacion" d="M780.8 748.8h-537.6c-81.067 0-147.2-66.133-147.2-147.2v-307.2c0-81.067 66.133-147.2 147.2-147.2h537.6c81.067 0 147.2 66.133 147.2 147.2v307.2c0 81.067-66.133 147.2-147.2 147.2zM243.2 684.8h537.6c46.080 0 83.2-37.12 83.2-83.2h-704c0 46.080 37.547 83.2 83.2 83.2zM780.8 211.2h-537.6c-46.080 0-83.2 37.547-83.2 83.2v192h704v-192c0-46.080-37.547-83.2-83.2-83.2z" />
<glyph unicode="&#xe95f;" glyph-name="favoritos" d="M281.173 55.893c-11.52 0-23.040 3.413-33.28 10.667-20.053 14.507-28.16 39.68-20.48 63.147l73.387 225.28-191.573 139.093c-19.627 14.507-28.16 39.68-20.48 63.147s29.013 38.827 53.76 38.827h236.8l64.427 198.4c8.96 27.307 33.707 45.227 62.293 45.227v0c28.587 0 53.76-18.347 62.293-45.227v0s64.427-198.4 64.427-198.4h236.8c24.747 0 46.080-15.787 53.76-38.827 7.68-23.467-0.853-48.64-20.48-63.147l-191.573-139.093 73.387-225.28c7.68-23.467-0.853-48.64-20.48-63.147s-46.507-14.507-66.133 0l-191.573 139.093-191.573-139.093c-9.813-7.253-21.333-10.667-33.28-10.667zM506.027 282.453c11.52 0 23.040-3.413 33.28-10.667l160.853-116.907-61.44 189.44c-7.68 23.040 0.427 48.64 20.48 63.147l161.28 116.907h-199.253c-24.32 0-46.080 15.787-53.76 38.827l-61.44 189.44-61.44-189.44c-7.68-23.467-29.013-38.827-53.76-38.827h-199.253l161.28-116.907c19.627-14.507 28.16-39.68 20.48-63.147l-61.44-189.44 160.853 116.907c9.813 7.253 21.76 10.667 33.28 10.667zM636.587 585.387v0 0z" />
<glyph unicode="&#xe960;" glyph-name="favoritossolido" d="M286.72 53.333c-11.52 0-23.040 3.413-33.28 10.667-20.053 14.507-28.16 39.68-20.48 63.147l73.387 225.28-191.573 139.093c-19.627 14.507-28.16 39.68-20.48 63.147s29.013 38.827 53.76 38.827h236.8l64.427 198.4c8.96 27.307 33.707 45.227 62.293 45.227v0c28.587 0 53.76-18.347 62.293-45.227v0s64.427-198.4 64.427-198.4h236.8c24.747 0 46.080-15.787 53.76-38.827 7.68-23.467-0.853-48.64-20.48-63.147l-191.573-139.093 73.387-225.28c7.68-23.467-0.853-48.64-20.48-63.147s-46.507-14.507-66.133 0l-191.573 139.093-191.573-139.093c-9.813-7.253-21.333-10.667-33.28-10.667zM642.133 582.827v0 0z" />
<glyph unicode="&#xe961;" glyph-name="feedback" d="M613.973 551.68h-58.88c-5.547 0-10.667 3.84-12.8 8.96l-15.36 46.933c-4.693 14.933-26.027 14.933-31.147 0l-15.36-46.933c-1.707-5.547-6.827-8.96-12.8-8.96h-58.453c-12.8 0-18.347-16.64-7.68-23.893l47.36-34.56c4.693-3.413 6.4-9.387 4.693-14.933l-17.92-55.893c-3.84-12.373 9.813-22.187 20.48-14.933l47.36 34.56c4.693 3.413 11.093 3.413 15.787 0l47.36-34.56c10.24-7.68 24.32 2.56 20.48 14.933l-17.92 55.893c-1.707 5.547 0 11.52 4.693 14.933l47.36 34.56c10.24 7.68 5.12 23.893-7.68 23.893zM782.080 831.573h-540.16c-83.627 0-151.893-66.987-151.893-149.76v-349.44c0-82.347 68.267-149.76 151.893-149.76h134.827l109.653-108.373c7.253-6.827 16.213-10.24 25.6-10.24s18.347 3.413 25.6 10.667l108.8 107.947h136.107c83.627 0 151.893 66.987 151.893 149.76v349.44c0 82.347-68.267 149.76-151.893 149.76zM861.44 332.8c0-42.667-35.413-77.227-79.36-77.227h-151.040c-4.693 0-9.387-0.853-14.080-2.987-3.413-1.28-6.4-3.84-9.387-6.4-0.853-0.427-1.707-0.853-2.133-1.707l-93.867-93.44-94.72 93.44s-2.56 1.707-3.84 2.56c-2.56 2.133-5.12 3.84-8.107 5.12-3.84 1.707-8.107 2.133-12.373 2.56-0.427 0-0.853 0-1.28 0h-149.76c-43.52 0-79.36 34.56-79.36 77.227v349.867c0 42.667 35.413 77.227 79.36 77.227h540.587c43.52 0 79.36-34.56 79.36-77.227v-349.44z" />
</font>
</defs>
</svg>
